<?xml version="1.0" encoding="utf-8"?>
<!-- Generator: Adobe Illustrator 22.0.1, SVG Export Plug-In . SVG Version: 6.00 Build 0)  -->
<svg version="1.1" id="Слой_1" xmlns="http://www.w3.org/2000/svg" xmlns:xlink="http://www.w3.org/1999/xlink" x="0px" y="0px"
	 viewBox="0 0 120 120" enable-background="new 0 0 120 120" xml:space="preserve">
<g id="mono">
	<g id="_x30_5">
		<line fill="none" stroke="#000000" stroke-miterlimit="10" x1="60.2" y1="12.6" x2="18.3" y2="84.2"/>
		<line fill="none" stroke="#000000" stroke-miterlimit="10" x1="102.6" y1="84.2" x2="60.2" y2="12.6"/>
		<line fill="none" stroke="#000000" stroke-miterlimit="10" x1="18" y1="84.5" x2="36" y2="84.6"/>
		<line fill="none" stroke="#000000" stroke-miterlimit="10" x1="84" y1="84.5" x2="102" y2="84.6"/>
		<line fill="none" stroke="#000000" stroke-miterlimit="10" x1="60.2" y1="43.2" x2="36.4" y2="84.2"/>
		<line fill="none" stroke="#000000" stroke-miterlimit="10" x1="84.1" y1="84.2" x2="60.2" y2="43.2"/>
		
			<line fill="none" stroke="#000000" stroke-width="2" stroke-linecap="round" stroke-miterlimit="10" x1="18.4" y1="85.1" x2="60" y2="104.4"/>
		<path fill="#FFFFFF" stroke="#000000" stroke-miterlimit="10" d="M77.5,104.6"/>
		<path fill="#FFFFFF" stroke="#000000" stroke-miterlimit="10" d="M42.2,104.4"/>
		
			<line fill="none" stroke="#000000" stroke-width="2" stroke-linecap="round" stroke-miterlimit="10" x1="60.3" y1="104.4" x2="102.8" y2="85"/>
		<line fill="none" stroke="#000000" stroke-miterlimit="10" x1="60.5" y1="43" x2="60.5" y2="13"/>
		<path fill="#FFFFFF" stroke="#000000" stroke-miterlimit="10" d="M60,111.9"/>
		<path fill="#FFFFFF" stroke="#000000" stroke-miterlimit="10" d="M36.4,84.2"/>
		<line fill="none" stroke="#000000" stroke-width="2" stroke-miterlimit="10" x1="60.1" y1="104.5" x2="36.4" y2="84.2"/>
		<line fill="none" stroke="#000000" stroke-width="2" stroke-miterlimit="10" x1="84.1" y1="84.4" x2="60.1" y2="104.5"/>
		<line fill="none" stroke="#000000" stroke-width="2" stroke-miterlimit="10" x1="48" y1="64" x2="72" y2="64"/>
		<line fill="none" stroke="#000000" stroke-width="2" stroke-miterlimit="10" x1="48.3" y1="63.7" x2="84.1" y2="84.4"/>
		<line fill="none" stroke="#000000" stroke-width="2" stroke-miterlimit="10" x1="60.1" y1="104.5" x2="48.3" y2="63.7"/>
	</g>
	<g id="_x31_">
		
			<line fill="none" stroke="#000000" stroke-width="3" stroke-linecap="round" stroke-miterlimit="10" x1="60.2" y1="12.6" x2="18.7" y2="83.5"/>
		
			<line fill="none" stroke="#000000" stroke-width="3" stroke-linecap="round" stroke-miterlimit="10" x1="102.6" y1="84.2" x2="60.2" y2="12.6"/>
		
			<line fill="none" stroke="#000000" stroke-width="3" stroke-linecap="round" stroke-miterlimit="10" x1="18.5" y1="84.5" x2="36.5" y2="84.6"/>
		
			<line fill="none" stroke="#000000" stroke-width="3" stroke-linecap="round" stroke-miterlimit="10" x1="84.5" y1="84.5" x2="102.5" y2="84.4"/>
		<line fill="none" stroke="#000000" stroke-width="3" stroke-miterlimit="10" x1="60.2" y1="43.2" x2="36.4" y2="84.2"/>
		<line fill="none" stroke="#000000" stroke-width="3" stroke-miterlimit="10" x1="84.1" y1="84.2" x2="60.2" y2="43.2"/>
		<path fill="#FFFFFF" stroke="#000000" stroke-miterlimit="10" d="M18.4,84.5"/>
		<path fill="#FFFFFF" stroke="#000000" stroke-miterlimit="10" d="M102.3,84.4"/>
		<line fill="none" stroke="#000000" stroke-width="3" stroke-miterlimit="10" x1="60.5" y1="43" x2="60.5" y2="13"/>
		<path fill="#FFFFFF" stroke="#000000" stroke-miterlimit="10" d="M36.4,84.2"/>
		<path fill="#FFFFFF" stroke="#000000" stroke-miterlimit="10" d="M36.4,84.2"/>
		<path fill="#FFFFFF" stroke="#000000" stroke-miterlimit="10" d="M84.4,84.3"/>
		<path fill="#FFFFFF" stroke="#000000" stroke-miterlimit="10" d="M71.8,63.7"/>
		<path fill="#FFFFFF" stroke="#000000" stroke-miterlimit="10" d="M48.3,63.7"/>
		<path fill="#FFFFFF" stroke="#000000" stroke-miterlimit="10" d="M84.4,84.3"/>
		<path fill="#FFFFFF" stroke="#000000" stroke-miterlimit="10" d="M48.3,63.7"/>
		<path fill="#FFFFFF" stroke="#000000" stroke-miterlimit="10" d="M48.3,63.7"/>
	</g>
</g>
</svg>
