<?xml version="1.0" encoding="utf-8"?>
<!-- Generator: Adobe Illustrator 22.0.1, SVG Export Plug-In . SVG Version: 6.00 Build 0)  -->
<svg version="1.1" id="Слой_2" xmlns="http://www.w3.org/2000/svg" xmlns:xlink="http://www.w3.org/1999/xlink" x="0px" y="0px"
	 viewBox="0 0 512 512" enable-background="new 0 0 512 512" xml:space="preserve">
<g>
	<path d="M177.6,223.2l77.4-77.4l77.4,77.4l45-45L255,55.8L132.6,178.2L177.6,223.2 M55.8,255l45-45l45,45l-45,45L55.8,255z
		 M177.6,286.8l77.4,77.4l77.4-77.4l45,45l0,0L255,454.2L132.6,331.8l-0.1-0.1L177.6,286.8 M364.2,255l45-45l45,45l-45,45L364.2,255
		z"/>
	<path d="M300.7,255L300.7,255L255,209.3l-33.8,33.8h0l-3.9,3.9l-8,8l-0.1,0.1l0.1,0.1l45.6,45.6L300.7,255L300.7,255L300.7,255"/>
</g>
</svg>
