<?xml version='1.0' encoding='utf-8'?>
<svg version="1.1" xmlns="http://www.w3.org/2000/svg" viewBox="0 0 129 129" xmlns:xlink="http://www.w3.org/1999/xlink" enable-background="new 0 0 129 129">
  <g>
    <path d="m96.7,75.3l22.6-7.2c1.6-0.5 2.7-1.9 2.8-3.6 0.1-1.7-0.8-3.2-2.2-4l-107.6-53.7c-1.6-0.8-3.4-0.5-4.7,0.7-1.2,1.2-1.6,3.1-0.8,4.7l52,107.5c0.7,1.4 2.1,2.3 3.7,2.3 0.1,0 0.2,0 0.3,0 1.7-0.1 3.1-1.2 3.6-2.8l8.3-24.8 26.2,26.2c1.5,1.5 4.2,1.5 5.8,0l14.9-14.9c1.6-1.6 1.6-4.2 0-5.8l-24.9-24.6zm6.9,36.8l-28-28c-0.8-0.8-1.8-1.2-2.9-1.2-0.3,0-0.6,0-0.9,0.1-1.4,0.3-2.5,1.3-2.9,2.7l-7.2,21.5-42.4-87.8 87.9,43.9-19.4,6.2c-1.4,0.4-2.4,1.5-2.7,2.9-0.3,1.4 0.1,2.8 1.1,3.8l26.6,26.6-9.2,9.3z"/>
  </g>
</svg>
