<?xml version="1.0" encoding="iso-8859-1"?>
<!-- Generator: Adobe Illustrator 22.0.1, SVG Export Plug-In . SVG Version: 6.00 Build 0)  -->
<svg version="1.1" id="&#x421;&#x43B;&#x43E;&#x439;_2_1_"
	 xmlns="http://www.w3.org/2000/svg" xmlns:xlink="http://www.w3.org/1999/xlink" x="0px" y="0px" viewBox="0 0 512 512"
	 enable-background="new 0 0 512 512" xml:space="preserve">
<path fill="#BDBDBD" d="M162.7,217.7l93.3-93.3l93.3,93.3l54.2-54.2L255.9,16.1L108.5,163.5L162.7,217.7 M15.9,256.1l54.2-54.2
	l54.2,54.2l-54.2,54.2L15.9,256.1z M162.7,294.4l93.3,93.3l93.3-93.3l54.2,54.2l0,0L255.9,496.1L108.5,348.6l-0.1-0.1L162.7,294.4
	 M387.5,256.1l54.2-54.2l54.2,54.2l-54.2,54.2L387.5,256.1z"/>
<path fill="#BDBDBD" d="M311.1,256L311.1,256L256,200.9l-40.7,40.7l0,0l-4.7,4.7l-9.6,9.6l-0.1,0.1l0.1,0.1l54.9,54.9L311.1,256
	L311.1,256L311.1,256"/>
</svg>
