<?xml version="1.0" encoding="utf-8"?>
<!-- Generator: Adobe Illustrator 22.0.1, SVG Export Plug-In . SVG Version: 6.00 Build 0)  -->
<svg version="1.1" id="Слой_4" xmlns="http://www.w3.org/2000/svg" xmlns:xlink="http://www.w3.org/1999/xlink" x="0px" y="0px"
	 viewBox="0 0 512 512" enable-background="new 0 0 512 512" xml:space="preserve">
<path fill="#BDBDBD" d="M330.4,61.2H155.6l-14.5,81l157.7,0.2c77.7,0,100.6,28.2,100,75c-0.3,24-10.7,64.5-15.2,77.7
	c-12,35-36.6,75-128.7,74.9l-153.3-0.1l-14.5,81h174.4c61.5,0,87.7-7.2,115.4-20c61.4-28.4,98-89,112.6-168.1
	C511.2,145,484.1,61.2,330.4,61.2z"/>
<path fill="#BDBDBD" d="M80.2,215.3c-45.8,0-52.3,29.8-56.7,47.9c-5.7,23.6-7.5,33.2-7.5,33.2h179c45.8,0,52.3-29.8,56.7-47.9
	c5.7-23.6,7.5-33.2,7.5-33.2H80.2z"/>
</svg>
