<?xml version="1.0" encoding="utf-8"?>
<!-- Generator: Adobe Illustrator 22.0.1, SVG Export Plug-In . SVG Version: 6.00 Build 0)  -->
<svg version="1.1" id="Слой_3" xmlns="http://www.w3.org/2000/svg" xmlns:xlink="http://www.w3.org/1999/xlink" x="0px" y="0px"
	 viewBox="0 0 512 512" enable-background="new 0 0 512 512" xml:space="preserve">
<g>
	<g id="path3759">
		<path fill="#BDBDBD" d="M242.7,496c-27.4,0-55.8-1.5-84.8-2.9c-8.6-0.5-17.3-0.9-26-1.3l-44.8-2.1V18.6l45.7-1.3
			C243.2,14.2,357.2,11,429.5,82c42.5,41.7,62.8,101.3,62.1,182.2v2c-4.1,81.4-26.6,139.5-68.7,177.4
			C375.3,486.5,312.3,496,242.7,496z M181.1,400.1c77.9,3.9,144.2,4.9,178.8-26.3c22.5-20.3,34.8-56.7,37.7-111.4
			c0.4-53.6-10.7-90.7-33.9-113.4C327.1,113.1,256.1,109,181,110.1v290H181.1z"/>
	</g>
	<g id="rect2987">
		<rect x="20.4" y="213.3" fill="#BDBDBD" width="248.4" height="86.8"/>
	</g>
</g>
</svg>
