<?xml version="1.0" encoding="iso-8859-1"?>
<!-- Generator: Adobe Illustrator 22.0.1, SVG Export Plug-In . SVG Version: 6.00 Build 0)  -->
<svg version="1.1" id="&#x421;&#x43B;&#x43E;&#x439;_4"
	 xmlns="http://www.w3.org/2000/svg" xmlns:xlink="http://www.w3.org/1999/xlink" x="0px" y="0px" viewBox="0 0 512 512"
	 enable-background="new 0 0 512 512" xml:space="preserve">
<path fill="#BDBDBD" d="M263.6,16v184.8l40.5,72.7h-98.6l41.5-72.7V16L37.8,379.5c-1.8,3.1-0.6,7,2.6,8.7l210,107.2
	c1.8,0.9,3.8,0.9,5.6,0l215.5-106.8c3.2-1.6,4.4-5.6,2.6-8.7L263.6,16z M71.2,386.2h60.2l75.8,65.4L71.2,386.2z M141.8,371.3
	l49.9-81.7L241.5,462L141.8,371.3z M208.2,290.3L364,377.5l-103.8,92.4L208.2,290.3z M380.6,386.2h60.2l-136,65.4L380.6,386.2z"/>
</svg>
