<?xml version="1.0" encoding="utf-8"?>
<!-- Generator: Adobe Illustrator 22.0.1, SVG Export Plug-In . SVG Version: 6.00 Build 0)  -->
<svg version="1.1" id="Слой_3" xmlns="http://www.w3.org/2000/svg" xmlns:xlink="http://www.w3.org/1999/xlink" x="0px" y="0px"
	 viewBox="0 0 512 512" enable-background="new 0 0 512 512" xml:space="preserve">
<g id="Слой_3_1_">
	<path fill="#BDBDBD" d="M417.8,248c0,0,34.4-26.2,34.1-100.2c0,0,3.8-76.4-80.6-115.4c-24.7-11-51.4-16.6-78.4-16.3h-246
		c-3.6-0.2-6.7,2.5-7.1,6.1v467.7c0.2,3.6,3.4,6.4,7,6.1l254.1-1.4c41.4,0.4,83.3-7.7,115.8-30.2c30.4-21.1,47.8-43.8,54.6-96.7
		C471.4,367.7,483,291.2,417.8,248z M346.5,188.9L225.7,320.6h121V372H136.4v-42.7l124-133.3h-124v-48.4h210.2L346.5,188.9z"/>
</g>
</svg>
