<?xml version="1.0" encoding="iso-8859-1"?>
<!-- Generator: Adobe Illustrator 22.0.1, SVG Export Plug-In . SVG Version: 6.00 Build 0)  -->
<svg version="1.1" id="&#x421;&#x43B;&#x43E;&#x439;_3"
	 xmlns="http://www.w3.org/2000/svg" xmlns:xlink="http://www.w3.org/1999/xlink" x="0px" y="0px" viewBox="0 0 512 512"
	 enable-background="new 0 0 512 512" xml:space="preserve">
<g>
	<g>
		<polyline fill="#BDBDBD" points="256,16.8 399.2,243 256,172.2 256,16.8 		"/>
		<path fill="#BDBDBD" d="M399.9,243.6l-144.1-71.2V16l0.5,0.7L399.9,243.6z M256.2,172.1l142.3,70.3L256.2,17.7V172.1z"/>
	</g>
	<g>
		<polyline fill="#BDBDBD" points="256,16.8 256,172.2 112.8,243 256,16.8 		"/>
		<path fill="#BDBDBD" d="M112.1,243.6l0.5-0.7L256.2,16v156.4l-0.1,0.1L112.1,243.6z M255.8,17.7L113.4,242.4l142.3-70.3V17.7z"/>
	</g>
	<g>
		<polyline fill="#BDBDBD" points="256,495.2 256,339.8 399.2,269 256,495.2 		"/>
		<path fill="#BDBDBD" d="M255.8,496V339.6l0.1-0.1l144-71.1l-0.5,0.7L255.8,496z M256.2,339.9v154.4l142.3-224.7L256.2,339.9z"/>
	</g>
	<g>
		<polyline fill="#BDBDBD" points="256,495.2 112.8,269 256,339.8 256,495.2 		"/>
		<path fill="#BDBDBD" d="M256.2,496L112.1,268.4l0.8,0.4l143.4,70.8V496z M113.4,269.6l142.3,224.7V339.9L113.4,269.6z"/>
	</g>
	<g>
		<polygon fill="#BDBDBD" points="399.2,243 256,313.7 112.8,243 256,172.3 		"/>
		<path fill="#BDBDBD" d="M256,313.9l-0.1-0.1L112.2,243L256,172l0.1,0.1L399.8,243l-0.4,0.2L256,313.9z M113.3,243L256,313.4
			L398.7,243L256,172.6L113.3,243z"/>
	</g>
</g>
</svg>
