<?xml version="1.0" encoding="utf-8"?>
<!-- Generator: Adobe Illustrator 22.0.1, SVG Export Plug-In . SVG Version: 6.00 Build 0)  -->
<svg version="1.1" id="Слой_2" xmlns="http://www.w3.org/2000/svg" xmlns:xlink="http://www.w3.org/1999/xlink" x="0px" y="0px"
	 viewBox="0 0 512 512" enable-background="new 0 0 512 512" xml:space="preserve">
<g>
	<path fill="#BDBDBD" d="M233.9,50c-11,18.8-20,35-20,36s23.3,41.5,51.5,90.3c94,161.3,101.5,174.8,100.2,178.5
		c-0.8,1.8-27.7,32.8-59.7,68.8s-58.5,66.5-59,67.8c-0.5,1.3,19.3,2.3,47.5,2.3h48.3l57.5-64.7c31.8-35.8,57.5-66,57.5-67.3
		c0-3.5-199.7-345.3-201.7-345.5C254.9,16,245.1,31.3,233.9,50z"/>
	<path fill="#BDBDBD" d="M125.1,237.3c-39.5,68-71.3,124.8-70.8,126.3c0.5,1.5,26.8,31.8,58.3,67.5l57.5,65h20l20-0.3l31.3-35.2
		c17.2-19.5,31.7-36.3,32-37.5c0.5-1-15.3-2-35-2h-36.3l-29-32.8c-16-18-29.2-33.8-29.2-35c0-1.2,22-40,48.8-86l48.8-83.8l-20.3-35
		c-11.3-19.3-21.3-35-22.3-35C197.6,113.5,164.6,169.3,125.1,237.3z"/>
</g>
</svg>
