<?xml version="1.0" encoding="utf-8"?>
<!-- Generator: Adobe Illustrator 22.0.1, SVG Export Plug-In . SVG Version: 6.00 Build 0)  -->
<svg version="1.1" xmlns="http://www.w3.org/2000/svg" xmlns:xlink="http://www.w3.org/1999/xlink" x="0px" y="0px"
	 viewBox="0 0 120 120" enable-background="new 0 0 120 120" xml:space="preserve">
<g id="back" display="none">
	<rect x="-165" y="-90" fill="#F5F4F5" width="450" height="300"/>
	<polygon fill="#FFFFFF" stroke="#CDCCCC" stroke-miterlimit="10" points="11.4,108.8 22.6,119.9 7.3,124 -7.9,128.1 -3.8,112.8 
		0.3,97.6 	"/>
	<circle fill="#FFFFFF" stroke="#CDCCCC" stroke-miterlimit="10" cx="60" cy="60" r="70"/>
	<polygon fill="#FFFFFF" points="13.6,106.6 25.7,118.6 9.2,123.1 -7.3,127.5 -2.9,111 1.5,94.5 	"/>
</g>
<g id="grad" display="none">
	<path display="inline" fill="none" stroke="#CDCCCC" stroke-width="0.5" stroke-miterlimit="10" d="M60.3,105.3"/>
	<path display="inline" fill="none" stroke="#CDCCCC" stroke-width="0.5" stroke-miterlimit="10" d="M60,104.5"/>
	
		<linearGradient id="SVGID_1_" gradientUnits="userSpaceOnUse" x1="188.0141" y1="77.7316" x2="207.2751" y2="111.0926" gradientTransform="matrix(-1 0 0 1 278.7937 0)">
		<stop  offset="0" style="stop-color:#DEDEDE"/>
		<stop  offset="1" style="stop-color:#FBFBFB"/>
	</linearGradient>
	<polygon display="inline" fill="url(#SVGID_1_)" points="84.4,84.6 102.3,84.4 60,104.4 60,104.4 75.5,91.7 77.3,90.2 	"/>
	<linearGradient id="SVGID_2_" gradientUnits="userSpaceOnUse" x1="10.1239" y1="70.1641" x2="72.7401" y2="34.0127">
		<stop  offset="0" style="stop-color:#C6C5C5"/>
		<stop  offset="1" style="stop-color:#F5F4F5"/>
	</linearGradient>
	<polygon display="inline" fill="url(#SVGID_2_)" points="60.1,12.2 60.3,28.6 60.3,43.6 54.6,53.6 43.8,71.4 36.1,84.3 18.3,84.2 
		33.3,58.6 	"/>
	<linearGradient id="SVGID_3_" gradientUnits="userSpaceOnUse" x1="48.0142" y1="34.4191" x2="110.4937" y2="70.4916">
		<stop  offset="0" style="stop-color:#CDCCCC"/>
		<stop  offset="1" style="stop-color:#F5F4F5"/>
	</linearGradient>
	<polygon display="inline" fill="url(#SVGID_3_)" points="60.6,12.6 60.3,28.6 60.3,43.6 66.1,53.6 77,71.7 84.4,84.6 102.6,84.2 
		87.3,58.1 	"/>
	<linearGradient id="SVGID_4_" gradientUnits="userSpaceOnUse" x1="68.2268" y1="67.3908" x2="52.3891" y2="51.5531">
		<stop  offset="0" style="stop-color:#EDEDED"/>
		<stop  offset="1" style="stop-color:#FFFFFF"/>
	</linearGradient>
	<polygon display="inline" fill="url(#SVGID_4_)" points="60.3,43.6 66.1,53.6 72.1,63.6 60.3,63.6 48.5,63.6 54.6,53.6 	"/>
	<linearGradient id="SVGID_5_" gradientUnits="userSpaceOnUse" x1="39.1744" y1="104.4491" x2="39.1744" y2="84.2438">
		<stop  offset="0" style="stop-color:#CBCACA"/>
		<stop  offset="1" style="stop-color:#EAEAEA"/>
	</linearGradient>
	<polygon display="inline" fill="url(#SVGID_5_)" points="18.3,84.4 36.5,84.2 60,104.4 31,90.5 26.7,88.4 24.5,87.4 	"/>
	<linearGradient id="SVGID_6_" gradientUnits="userSpaceOnUse" x1="48.5351" y1="84.2357" x2="83.7388" y2="84.2357">
		<stop  offset="0" style="stop-color:#EDEDED"/>
		<stop  offset="1" style="stop-color:#FFFFFF"/>
	</linearGradient>
	<polyline display="inline" fill="url(#SVGID_6_)" points="48.5,64 60,104.4 83.7,84.5 	"/>
	<linearGradient id="SVGID_7_" gradientUnits="userSpaceOnUse" x1="66.1062" y1="74.2632" x2="72.1061" y2="63.871">
		<stop  offset="0" style="stop-color:#DDDDDD"/>
		<stop  offset="1" style="stop-color:#F1F1F1"/>
	</linearGradient>
	<polygon display="inline" fill="url(#SVGID_7_)" points="71.9,63.7 65.6,63.7 48.4,64 72,77.4 84,84.3 75.3,69.3 	"/>
	<linearGradient id="SVGID_8_" gradientUnits="userSpaceOnUse" x1="36.4495" y1="84.0836" x2="59.4827" y2="84.0836">
		<stop  offset="0" style="stop-color:#EDEDED"/>
		<stop  offset="1" style="stop-color:#FFFFFF"/>
	</linearGradient>
	<polyline display="inline" fill="url(#SVGID_8_)" points="48.3,64.5 36.4,84.1 59.5,103.7 	"/>
</g>
<g id="split" display="none">
	<path display="inline" fill="#CBCACA" stroke="#CDCCCC" stroke-width="0.5" stroke-miterlimit="10" d="M60.3,117.6"/>
	<path display="inline" fill="#CBCACA" stroke="#CDCCCC" stroke-width="0.5" stroke-miterlimit="10" d="M71.8,104.5"/>
	<path display="inline" fill="#CBCACA" stroke="#CDCCCC" stroke-width="0.5" stroke-miterlimit="10" d="M42.2,104.4"/>
	<path display="inline" fill="#CBCACA" stroke="#CDCCCC" stroke-width="0.5" stroke-miterlimit="10" d="M77.9,104.3"/>
	<path display="inline" fill="#CBCACA" stroke="#CDCCCC" stroke-width="0.5" stroke-miterlimit="10" d="M60.1,117"/>
	<path display="inline" fill="none" stroke="#CDCCCC" stroke-width="0.5" stroke-miterlimit="10" d="M60.3,105.3"/>
	<path display="inline" fill="none" stroke="#CDCCCC" stroke-width="0.5" stroke-miterlimit="10" d="M60,104.5"/>
	<polygon display="inline" fill="#EAEAEA" points="84.3,84.5 102.2,84.3 59.9,104.3 59.9,104.3 75.4,91.5 77.1,90 	"/>
	<polygon display="inline" fill="#DDDDDD" points="60.1,12.2 60.3,28.6 60.3,43.6 54.6,53.6 43.8,71.4 36.1,84.3 18.3,84.2 
		33.3,58.6 	"/>
	<polygon display="inline" fill="#EEEEEE" points="60.3,12.8 60.3,28.6 60.3,43.6 66.1,53.6 77,71.7 84.4,84.6 102.6,84.2 
		87.3,58.1 	"/>
	<polygon display="inline" fill="#F5F4F5" points="60.3,43.6 66.1,53.6 72.1,63.6 60.3,63.6 48.5,63.6 54.6,53.6 	"/>
	<polygon display="inline" fill="#F5F4F5" points="18.3,84.4 36.5,84.2 60,104.4 31,90.5 26.7,88.4 24.5,87.4 	"/>
	<linearGradient id="SVGID_9_" gradientUnits="userSpaceOnUse" x1="-0.3129" y1="91.2898" x2="-0.3129" y2="91.2898">
		<stop  offset="0" style="stop-color:#DEDEDE"/>
		<stop  offset="1" style="stop-color:#FBFBFB"/>
	</linearGradient>
	<path display="inline" fill="url(#SVGID_9_)" d="M-0.3,91.3"/>
	<polyline display="inline" fill="#FAFAFA" points="48.5,64 60,104.4 83.7,84.5 	"/>
	<polygon display="inline" fill="#EAEAEA" points="71.9,63.7 65.6,63.7 48.4,64 72,77.4 84,84.3 75.3,69.3 	"/>
	<polyline display="inline" fill="#FBFBFB" points="48.3,64.5 36.4,84.1 59.5,103.7 	"/>
</g>
<g id="colored" display="none">
	<path display="inline" fill="#CBCACA" stroke="#CDCCCC" stroke-width="0.5" stroke-miterlimit="10" d="M60.3,117.6"/>
	<path display="inline" fill="#CBCACA" stroke="#CDCCCC" stroke-width="0.5" stroke-miterlimit="10" d="M71.8,104.5"/>
	<path display="inline" fill="#CBCACA" stroke="#CDCCCC" stroke-width="0.5" stroke-miterlimit="10" d="M42.2,104.4"/>
	<path display="inline" fill="#CBCACA" stroke="#CDCCCC" stroke-width="0.5" stroke-miterlimit="10" d="M77.9,104.3"/>
	<path display="inline" fill="#CBCACA" stroke="#CDCCCC" stroke-width="0.5" stroke-miterlimit="10" d="M60.1,117"/>
	<path display="inline" fill="none" stroke="#CDCCCC" stroke-width="0.5" stroke-miterlimit="10" d="M60.3,105.3"/>
	<path display="inline" fill="none" stroke="#CDCCCC" stroke-width="0.5" stroke-miterlimit="10" d="M60,104.5"/>
	<polygon display="inline" fill="#4174B9" points="84.5,85.1 102.6,84.9 59.9,104.3 59.9,104.3 75.5,92 77.3,90.5 	"/>
	<polygon display="inline" fill="#4174B9" points="60.1,12.2 60.3,28.6 60.3,43.6 54.6,53.6 43.8,71.4 36.1,84.3 18.3,84.2 
		33.3,58.6 	"/>
	<polygon display="inline" fill="#4174B9" points="60.3,12.8 60.3,28.6 60.3,43.6 66.1,53.6 77,71.7 84.4,84.6 102.6,84.2 
		87.3,58.1 	"/>
	<polygon display="inline" fill="#4174B9" points="60.3,43.6 66.1,53.6 72.1,63.6 60.3,63.6 48.5,63.6 54.6,53.6 	"/>
	<polygon display="inline" fill="#4174B9" points="18.3,84.4 36.5,84.2 60,104.4 31,90.5 26.7,88.4 24.5,87.4 	"/>
	<linearGradient id="SVGID_10_" gradientUnits="userSpaceOnUse" x1="-0.3129" y1="91.2898" x2="-0.3129" y2="91.2898">
		<stop  offset="0" style="stop-color:#DEDEDE"/>
		<stop  offset="1" style="stop-color:#FBFBFB"/>
	</linearGradient>
	<path display="inline" fill="url(#SVGID_10_)" d="M-0.3,91.3"/>
	<polyline display="inline" fill="#4174B9" points="48.5,64 60,104.4 83.7,84.5 	"/>
	<polygon display="inline" fill="#4174B9" points="71.9,63.7 65.6,63.7 48.4,64 72,77.4 84,84.3 75.3,69.3 	"/>
	<polyline display="inline" fill="#4174B9" points="48.3,64.5 36.4,84.1 59.5,103.7 	"/>
</g>
<g id="colored_split" display="none">
	<path display="inline" fill="#CBCACA" stroke="#CDCCCC" stroke-width="0.5" stroke-miterlimit="10" d="M60.3,117.6"/>
	<path display="inline" fill="#CBCACA" stroke="#CDCCCC" stroke-width="0.5" stroke-miterlimit="10" d="M71.8,104.5"/>
	<path display="inline" fill="#CBCACA" stroke="#CDCCCC" stroke-width="0.5" stroke-miterlimit="10" d="M42.2,104.4"/>
	<path display="inline" fill="#CBCACA" stroke="#CDCCCC" stroke-width="0.5" stroke-miterlimit="10" d="M77.9,104.3"/>
	<path display="inline" fill="#CBCACA" stroke="#CDCCCC" stroke-width="0.5" stroke-miterlimit="10" d="M60.1,117"/>
	<path display="inline" fill="none" stroke="#CDCCCC" stroke-width="0.5" stroke-miterlimit="10" d="M60.3,105.3"/>
	<path display="inline" fill="none" stroke="#CDCCCC" stroke-width="0.5" stroke-miterlimit="10" d="M60,104.5"/>
	<polygon display="inline" fill="#444444" points="84.5,85.1 102.6,84.9 59.9,104.3 59.9,104.3 75.5,92 77.3,90.5 	"/>
	<polygon display="inline" fill="#4174B9" points="60.1,12.2 60.3,28.6 60.3,43.6 54.6,53.6 43.8,71.4 36.1,84.3 18.3,84.2 
		33.3,58.6 	"/>
	<polygon display="inline" fill="#4174B9" points="60.3,12.8 60.3,28.6 60.3,43.6 66.1,53.6 77,71.7 84.4,84.6 102.6,84.2 
		87.3,58.1 	"/>
	<polygon display="inline" fill="#878888" points="60.3,43.6 66.1,53.6 72.1,63.6 60.3,63.6 48.5,63.6 54.6,53.6 	"/>
	<polygon display="inline" fill="#878888" points="18.3,84.4 36.5,84.2 60,104.4 31,90.5 26.7,88.4 24.5,87.4 	"/>
	<linearGradient id="SVGID_11_" gradientUnits="userSpaceOnUse" x1="-0.3129" y1="91.2898" x2="-0.3129" y2="91.2898">
		<stop  offset="0" style="stop-color:#DEDEDE"/>
		<stop  offset="1" style="stop-color:#FBFBFB"/>
	</linearGradient>
	<path display="inline" fill="url(#SVGID_11_)" d="M-0.3,91.3"/>
	<polyline display="inline" fill="#878888" points="48.5,64 60,104.4 83.7,84.5 	"/>
	<polygon display="inline" fill="#4174B9" points="71.9,63.7 65.6,63.7 48.4,64 72,77.4 84,84.3 75.3,69.3 	"/>
	<polyline display="inline" fill="#444444" points="48.3,64.5 36.4,84.1 59.5,103.7 	"/>
</g>
<g id="main">
	<g>
		<g>
			<line fill="#CBCACA" x1="60.2" y1="12.6" x2="18.3" y2="84.2"/>
			<path fill="#444444" d="M18.3,84.7c-0.1,0-0.2,0-0.3-0.1c-0.2-0.1-0.3-0.4-0.2-0.7l42-71.7c0.1-0.2,0.4-0.3,0.7-0.2
				c0.2,0.1,0.3,0.4,0.2,0.7l-42,71.7C18.6,84.7,18.4,84.7,18.3,84.7z"/>
		</g>
		<g>
			<line fill="#CBCACA" x1="102.6" y1="84.2" x2="60.2" y2="12.6"/>
			<path fill="#444444" d="M102.6,84.7c-0.2,0-0.3-0.1-0.4-0.2L59.8,12.8c-0.1-0.2-0.1-0.5,0.2-0.7c0.2-0.1,0.5-0.1,0.7,0.2L103,84
				c0.1,0.2,0.1,0.5-0.2,0.7C102.7,84.7,102.6,84.7,102.6,84.7z"/>
		</g>
		<g>
			<line fill="#CBCACA" x1="18.3" y1="84.2" x2="36.1" y2="84.3"/>
			<path fill="#444444" d="M36.1,84.8L36.1,84.8l-17.9,0c-0.3,0-0.5-0.2-0.5-0.5c0-0.3,0.2-0.5,0.5-0.5h0l17.9,0
				c0.3,0,0.5,0.2,0.5,0.5C36.6,84.5,36.4,84.8,36.1,84.8z"/>
		</g>
		<g>
			<line fill="#CBCACA" x1="84.4" y1="84.3" x2="102.3" y2="84.4"/>
			<path fill="#444444" d="M102.3,84.9C102.3,84.9,102.3,84.9,102.3,84.9l-17.9,0c-0.3,0-0.5-0.2-0.5-0.5c0-0.3,0.2-0.5,0.5-0.5
				c0,0,0,0,0,0l17.9,0c0.3,0,0.5,0.2,0.5,0.5C102.8,84.7,102.6,84.9,102.3,84.9z"/>
		</g>
		<g>
			<line fill="#CBCACA" x1="60.2" y1="43.2" x2="36.4" y2="84.2"/>
			<path fill="#444444" d="M36.4,84.7c-0.1,0-0.2,0-0.3-0.1c-0.2-0.1-0.3-0.4-0.2-0.7l23.8-41c0.1-0.2,0.4-0.3,0.7-0.2
				c0.2,0.1,0.3,0.4,0.2,0.7l-23.8,41C36.8,84.7,36.6,84.7,36.4,84.7z"/>
		</g>
		<g>
			<line fill="#6794CE" x1="84.1" y1="84.2" x2="60.2" y2="43.2"/>
			<path fill="#444444" d="M84.1,84.7c-0.2,0-0.3-0.1-0.4-0.2l-23.9-41c-0.1-0.2-0.1-0.5,0.2-0.7c0.2-0.1,0.5-0.1,0.7,0.2l23.9,41
				c0.1,0.2,0.1,0.5-0.2,0.7C84.3,84.7,84.2,84.7,84.1,84.7z"/>
		</g>
		<g>
			<line fill="#CBCACA" x1="18.4" y1="84.5" x2="60" y2="104.4"/>
			<path fill="#444444" d="M60,104.9c-0.1,0-0.1,0-0.2,0l-41.6-20c-0.2-0.1-0.4-0.4-0.2-0.7c0.1-0.2,0.4-0.4,0.7-0.2l41.6,20
				c0.2,0.1,0.4,0.4,0.2,0.7C60.4,104.8,60.2,104.9,60,104.9z"/>
		</g>
		<g>
			<line fill="#CBCACA" x1="60.3" y1="104.4" x2="102.3" y2="84.4"/>
			<path fill="#444444" d="M60.3,104.9c-0.2,0-0.4-0.1-0.5-0.3c-0.1-0.2,0-0.5,0.2-0.7l42-20c0.2-0.1,0.5,0,0.7,0.2
				c0.1,0.2,0,0.5-0.2,0.7l-42,20C60.4,104.9,60.3,104.9,60.3,104.9z"/>
		</g>
		<g>
			<line fill="#CBCACA" x1="60.2" y1="43.2" x2="60.2" y2="12.6"/>
			<path fill="#444444" d="M60.2,43.7c-0.3,0-0.5-0.2-0.5-0.5V12.6c0-0.3,0.2-0.5,0.5-0.5s0.5,0.2,0.5,0.5v30.7
				C60.7,43.5,60.5,43.7,60.2,43.7z"/>
		</g>
		<g>
			<path fill="#CBCACA" stroke="#444444" stroke-linecap="round" stroke-miterlimit="10" d="M36.4,84.2"/>
		</g>
		<g>
			<line fill="#CBCACA" x1="60.1" y1="104.5" x2="36.4" y2="84.2"/>
			<path fill="#444444" d="M60.1,105c-0.1,0-0.2,0-0.3-0.1L36.1,84.6c-0.2-0.2-0.2-0.5-0.1-0.7c0.2-0.2,0.5-0.2,0.7-0.1l23.7,20.3
				c0.2,0.2,0.2,0.5,0.1,0.7C60.4,105,60.3,105,60.1,105z"/>
		</g>
		<g>
			<line fill="#CBCACA" x1="84.4" y1="84.3" x2="60.1" y2="104.5"/>
			<path fill="#444444" d="M60.1,105c-0.1,0-0.3-0.1-0.4-0.2c-0.2-0.2-0.1-0.5,0.1-0.7L84.1,84c0.2-0.2,0.5-0.1,0.7,0.1
				c0.2,0.2,0.1,0.5-0.1,0.7l-24.3,20.2C60.3,105,60.2,105,60.1,105z"/>
		</g>
		<g>
			<line fill="#CBCACA" x1="48.3" y1="63.7" x2="71.8" y2="63.7"/>
			<path fill="#444444" d="M71.8,64.2H48.3c-0.3,0-0.5-0.2-0.5-0.5s0.2-0.5,0.5-0.5h23.5c0.3,0,0.5,0.2,0.5,0.5S72.1,64.2,71.8,64.2
				z"/>
		</g>
		<g>
			<line fill="#CBCACA" x1="48.3" y1="63.7" x2="84.4" y2="84.3"/>
			<path fill="#444444" d="M84.4,84.8c-0.1,0-0.2,0-0.2-0.1L48.1,64.2c-0.2-0.1-0.3-0.4-0.2-0.7c0.1-0.2,0.4-0.3,0.7-0.2l36.1,20.6
				c0.2,0.1,0.3,0.4,0.2,0.7C84.7,84.8,84.6,84.8,84.4,84.8z"/>
		</g>
		<g>
			<line fill="#CBCACA" x1="60.1" y1="104.5" x2="48.3" y2="63.7"/>
			<path fill="#444444" d="M60.1,105c-0.2,0-0.4-0.1-0.5-0.4L47.8,63.9c-0.1-0.3,0.1-0.5,0.3-0.6c0.3-0.1,0.5,0.1,0.6,0.3l11.8,40.8
				c0.1,0.3-0.1,0.5-0.3,0.6C60.2,105,60.2,105,60.1,105z"/>
		</g>
	</g>
</g>
<g id="main_grad_color" display="none">
	<linearGradient id="SVGID_12_" gradientUnits="userSpaceOnUse" x1="60.7178" y1="48.4124" x2="17.7529" y2="48.4124">
		<stop  offset="0" style="stop-color:#3F7DC0;stop-opacity:0.2"/>
		<stop  offset="1" style="stop-color:#BBBBBA;stop-opacity:0.4"/>
	</linearGradient>
	
		<line display="inline" fill="#CBCACA" stroke="url(#SVGID_12_)" stroke-linecap="round" stroke-miterlimit="10" x1="60.2" y1="12.6" x2="18.3" y2="84.2"/>
	<linearGradient id="SVGID_13_" gradientUnits="userSpaceOnUse" x1="81.3858" y1="84.7438" x2="81.3858" y2="12.0811">
		<stop  offset="0" style="stop-color:#3F7DC0;stop-opacity:0.2"/>
		<stop  offset="1" style="stop-color:#BBBBBA;stop-opacity:0.4"/>
	</linearGradient>
	
		<line display="inline" fill="#CBCACA" stroke="url(#SVGID_13_)" stroke-linecap="round" stroke-miterlimit="10" x1="102.6" y1="84.2" x2="60.2" y2="12.6"/>
	<linearGradient id="SVGID_14_" gradientUnits="userSpaceOnUse" x1="17.7529" y1="84.2566" x2="36.6386" y2="84.2566">
		<stop  offset="0" style="stop-color:#3F7DC0;stop-opacity:0.2"/>
		<stop  offset="1" style="stop-color:#BBBBBA;stop-opacity:0.4"/>
	</linearGradient>
	
		<line display="inline" fill="#CBCACA" stroke="url(#SVGID_14_)" stroke-linecap="round" stroke-miterlimit="10" x1="18.3" y1="84.2" x2="36.1" y2="84.3"/>
	<linearGradient id="SVGID_15_" gradientUnits="userSpaceOnUse" x1="83.9005" y1="84.3623" x2="102.7863" y2="84.3623">
		<stop  offset="0" style="stop-color:#3F7DC0;stop-opacity:0.2"/>
		<stop  offset="1" style="stop-color:#BBBBBA;stop-opacity:0.4"/>
	</linearGradient>
	
		<line display="inline" fill="#CBCACA" stroke="url(#SVGID_15_)" stroke-linecap="round" stroke-miterlimit="10" x1="84.4" y1="84.3" x2="102.3" y2="84.4"/>
	<linearGradient id="SVGID_16_" gradientUnits="userSpaceOnUse" x1="35.9123" y1="63.7463" x2="60.7307" y2="63.7463">
		<stop  offset="0" style="stop-color:#3F7DC0;stop-opacity:0.2"/>
		<stop  offset="1" style="stop-color:#BBBBBA;stop-opacity:0.4"/>
	</linearGradient>
	
		<line display="inline" fill="#CBCACA" stroke="url(#SVGID_16_)" stroke-linecap="round" stroke-miterlimit="10" x1="60.2" y1="43.2" x2="36.4" y2="84.2"/>
	<linearGradient id="SVGID_17_" gradientUnits="userSpaceOnUse" x1="59.7307" y1="63.7463" x2="84.6078" y2="63.7463">
		<stop  offset="0" style="stop-color:#3F7DC0;stop-opacity:0.2"/>
		<stop  offset="1" style="stop-color:#BBBBBA;stop-opacity:0.4"/>
	</linearGradient>
	
		<line display="inline" fill="#6794CE" stroke="url(#SVGID_17_)" stroke-linecap="round" stroke-miterlimit="10" x1="84.1" y1="84.2" x2="60.2" y2="43.2"/>
	<linearGradient id="SVGID_18_" gradientUnits="userSpaceOnUse" x1="17.9319" y1="94.4537" x2="60.5119" y2="94.4537">
		<stop  offset="0" style="stop-color:#3F7DC0;stop-opacity:0.2"/>
		<stop  offset="1" style="stop-color:#BBBBBA;stop-opacity:0.4"/>
	</linearGradient>
	
		<line display="inline" fill="#CBCACA" stroke="url(#SVGID_18_)" stroke-linecap="round" stroke-miterlimit="10" x1="18.4" y1="84.5" x2="60" y2="104.4"/>
	<linearGradient id="SVGID_19_" gradientUnits="userSpaceOnUse" x1="59.7728" y1="94.3944" x2="102.7863" y2="94.3944">
		<stop  offset="0" style="stop-color:#3F7DC0;stop-opacity:0.2"/>
		<stop  offset="1" style="stop-color:#BBBBBA;stop-opacity:0.4"/>
	</linearGradient>
	
		<line display="inline" fill="#CBCACA" stroke="url(#SVGID_19_)" stroke-linecap="round" stroke-miterlimit="10" x1="60.3" y1="104.4" x2="102.3" y2="84.4"/>
	<linearGradient id="SVGID_20_" gradientUnits="userSpaceOnUse" x1="60.2178" y1="43.7488" x2="60.2178" y2="12.0811">
		<stop  offset="0" style="stop-color:#3F7DC0;stop-opacity:0.2"/>
		<stop  offset="1" style="stop-color:#BBBBBA;stop-opacity:0.4"/>
	</linearGradient>
	
		<line display="inline" fill="#CBCACA" stroke="url(#SVGID_20_)" stroke-linecap="round" stroke-miterlimit="10" x1="60.2" y1="43.2" x2="60.2" y2="12.6"/>
	<linearGradient id="SVGID_21_" gradientUnits="userSpaceOnUse" x1="36.4123" y1="84.2438" x2="36.4123" y2="84.2438">
		<stop  offset="0" style="stop-color:#3F7DC0;stop-opacity:0.2"/>
		<stop  offset="1" style="stop-color:#BBBBBA;stop-opacity:0.4"/>
	</linearGradient>
	<path display="inline" fill="#CBCACA" stroke="url(#SVGID_21_)" stroke-linecap="round" stroke-miterlimit="10" d="M36.4,84.2"/>
	<linearGradient id="SVGID_22_" gradientUnits="userSpaceOnUse" x1="35.9123" y1="94.3935" x2="60.617" y2="94.3935">
		<stop  offset="0" style="stop-color:#3F7DC0;stop-opacity:0.2"/>
		<stop  offset="1" style="stop-color:#BBBBBA;stop-opacity:0.4"/>
	</linearGradient>
	
		<line display="inline" fill="#CBCACA" stroke="url(#SVGID_22_)" stroke-linecap="round" stroke-miterlimit="10" x1="60.1" y1="104.5" x2="36.4" y2="84.2"/>
	<linearGradient id="SVGID_23_" gradientUnits="userSpaceOnUse" x1="59.617" y1="94.4527" x2="84.625" y2="94.4527">
		<stop  offset="0" style="stop-color:#3F7DC0;stop-opacity:0.2"/>
		<stop  offset="1" style="stop-color:#BBBBBA;stop-opacity:0.4"/>
	</linearGradient>
	
		<line display="inline" fill="#CBCACA" stroke="url(#SVGID_23_)" stroke-linecap="round" stroke-miterlimit="10" x1="84.1" y1="84.4" x2="60.1" y2="104.5"/>
	<linearGradient id="SVGID_24_" gradientUnits="userSpaceOnUse" x1="47.8215" y1="63.7463" x2="72.3277" y2="63.7463">
		<stop  offset="0" style="stop-color:#3F7DC0;stop-opacity:0.2"/>
		<stop  offset="1" style="stop-color:#BBBBBA;stop-opacity:0.4"/>
	</linearGradient>
	
		<line display="inline" fill="#CBCACA" stroke="url(#SVGID_24_)" stroke-linecap="round" stroke-miterlimit="10" x1="48.3" y1="63.7" x2="71.8" y2="63.7"/>
	<linearGradient id="SVGID_25_" gradientUnits="userSpaceOnUse" x1="47.8215" y1="74.0543" x2="84.625" y2="74.0543">
		<stop  offset="0" style="stop-color:#3F7DC0;stop-opacity:0.2"/>
		<stop  offset="1" style="stop-color:#BBBBBA;stop-opacity:0.4"/>
	</linearGradient>
	
		<line display="inline" fill="#CBCACA" stroke="url(#SVGID_25_)" stroke-linecap="round" stroke-miterlimit="10" x1="48.3" y1="63.7" x2="84.1" y2="84.4"/>
	<linearGradient id="SVGID_26_" gradientUnits="userSpaceOnUse" x1="47.8215" y1="84.1447" x2="60.617" y2="84.1447">
		<stop  offset="0" style="stop-color:#3F7DC0;stop-opacity:0.2"/>
		<stop  offset="1" style="stop-color:#BBBBBA;stop-opacity:0.4"/>
	</linearGradient>
	
		<line display="inline" fill="#CBCACA" stroke="url(#SVGID_26_)" stroke-linecap="round" stroke-miterlimit="10" x1="60.1" y1="104.5" x2="48.3" y2="63.7"/>
</g>
<g id="main_1" display="none">
	
		<line display="inline" fill="#CBCACA" stroke="#A9A9A9" stroke-linecap="round" stroke-miterlimit="10" x1="60.2" y1="12.6" x2="18.3" y2="84.2"/>
	
		<line display="inline" fill="#CBCACA" stroke="#A9A9A9" stroke-linecap="round" stroke-miterlimit="10" x1="102.6" y1="84.2" x2="60.2" y2="12.6"/>
	
		<line display="inline" fill="#CBCACA" stroke="#A9A9A9" stroke-linecap="round" stroke-miterlimit="10" x1="18.3" y1="84.2" x2="36.1" y2="84.3"/>
	
		<line display="inline" fill="#CBCACA" stroke="#A9A9A9" stroke-linecap="round" stroke-miterlimit="10" x1="84.4" y1="84.3" x2="102.3" y2="84.4"/>
	
		<line display="inline" fill="#CBCACA" stroke="#A9A9A9" stroke-linecap="round" stroke-miterlimit="10" x1="60.2" y1="43.2" x2="36.4" y2="84.2"/>
	
		<line display="inline" fill="#6794CE" stroke="#A9A9A9" stroke-linecap="round" stroke-miterlimit="10" x1="84.1" y1="84.2" x2="60.2" y2="43.2"/>
	<path display="inline" fill="#CBCACA" stroke="#A9A9A9" stroke-linecap="round" stroke-miterlimit="10" d="M18.4,84.5"/>
	<path display="inline" fill="#CBCACA" stroke="#A9A9A9" stroke-linecap="round" stroke-miterlimit="10" d="M102.3,84.4"/>
	
		<line display="inline" fill="#CBCACA" stroke="#A9A9A9" stroke-linecap="round" stroke-miterlimit="10" x1="60.2" y1="43.2" x2="60.2" y2="12.6"/>
	<path display="inline" fill="#CBCACA" stroke="#A9A9A9" stroke-linecap="round" stroke-miterlimit="10" d="M36.4,84.2"/>
	<path display="inline" fill="#CBCACA" stroke="#A9A9A9" stroke-linecap="round" stroke-miterlimit="10" d="M36.4,84.2"/>
	<path display="inline" fill="#CBCACA" stroke="#A9A9A9" stroke-linecap="round" stroke-miterlimit="10" d="M84.4,84.3"/>
	<path display="inline" fill="#CBCACA" stroke="#A9A9A9" stroke-linecap="round" stroke-miterlimit="10" d="M71.8,63.7"/>
	<path display="inline" fill="#CBCACA" stroke="#A9A9A9" stroke-linecap="round" stroke-miterlimit="10" d="M48.3,63.7"/>
	<path display="inline" fill="#CBCACA" stroke="#A9A9A9" stroke-linecap="round" stroke-miterlimit="10" d="M84.4,84.3"/>
	<path display="inline" fill="#CBCACA" stroke="#A9A9A9" stroke-linecap="round" stroke-miterlimit="10" d="M48.3,63.7"/>
	<path display="inline" fill="#CBCACA" stroke="#A9A9A9" stroke-linecap="round" stroke-miterlimit="10" d="M48.3,63.7"/>
</g>
<g id="mono" display="none">
	<g id="_x32_-4" display="inline">
		<line fill="#FFFFFF" stroke="#000000" stroke-miterlimit="10" x1="60.2" y1="12.6" x2="18.3" y2="84.2"/>
		<line fill="#FFFFFF" stroke="#000000" stroke-miterlimit="10" x1="102.6" y1="84.2" x2="60.2" y2="12.6"/>
		<line fill="#FFFFFF" stroke="#000000" stroke-miterlimit="10" x1="18.3" y1="84.2" x2="36.1" y2="84.3"/>
		<line fill="#FFFFFF" stroke="#000000" stroke-miterlimit="10" x1="84.4" y1="84.3" x2="102.3" y2="84.4"/>
		<line fill="#FFFFFF" stroke="#000000" stroke-miterlimit="10" x1="60.2" y1="43.2" x2="36.4" y2="84.2"/>
		<line fill="#FFFFFF" stroke="#000000" stroke-miterlimit="10" x1="84.1" y1="84.2" x2="60.2" y2="43.2"/>
		
			<line fill="#FFFFFF" stroke="#000000" stroke-width="2" stroke-linecap="round" stroke-miterlimit="10" x1="17.6" y1="85" x2="60" y2="104.4"/>
		<path fill="#FFFFFF" stroke="#000000" stroke-miterlimit="10" d="M77.5,104.6"/>
		<path fill="#FFFFFF" stroke="#000000" stroke-miterlimit="10" d="M42.2,104.4"/>
		
			<line fill="#FFFFFF" stroke="#000000" stroke-width="2" stroke-linecap="round" stroke-miterlimit="10" x1="60.3" y1="104.4" x2="102.8" y2="85.3"/>
		<line fill="#FFFFFF" stroke="#000000" stroke-miterlimit="10" x1="60.2" y1="43.2" x2="60.2" y2="12.6"/>
		<path fill="#FFFFFF" stroke="#000000" stroke-miterlimit="10" d="M60,111.9"/>
		<path fill="#FFFFFF" stroke="#000000" stroke-miterlimit="10" d="M36.4,84.2"/>
		
			<line fill="#FFFFFF" stroke="#000000" stroke-width="2" stroke-linecap="round" stroke-miterlimit="10" x1="60.1" y1="104.5" x2="36.1" y2="84.3"/>
		
			<line fill="#FFFFFF" stroke="#000000" stroke-width="2" stroke-linecap="round" stroke-miterlimit="10" x1="84.9" y1="84.9" x2="60.1" y2="104.5"/>
		<line fill="#FFFFFF" stroke="#000000" stroke-width="4" stroke-miterlimit="10" x1="48.3" y1="63.7" x2="71.8" y2="63.7"/>
		<line fill="#FFFFFF" stroke="#000000" stroke-width="4" stroke-miterlimit="10" x1="48.3" y1="63.7" x2="84.1" y2="84.4"/>
		
			<line fill="#FFFFFF" stroke="#000000" stroke-width="2" stroke-linecap="round" stroke-miterlimit="10" x1="60.1" y1="104.5" x2="48.3" y2="63.7"/>
	</g>
	<g id="_x34_">
		
			<line display="inline" fill="#FFFFFF" stroke="#000000" stroke-width="4" stroke-linecap="round" stroke-miterlimit="10" x1="60.2" y1="12.6" x2="18.3" y2="84.2"/>
		
			<line display="inline" fill="#FFFFFF" stroke="#000000" stroke-width="4" stroke-linecap="round" stroke-miterlimit="10" x1="102.3" y1="84.4" x2="60.2" y2="12.6"/>
		
			<line display="inline" fill="#FFFFFF" stroke="#000000" stroke-width="4" stroke-linecap="round" stroke-miterlimit="10" x1="18.3" y1="84.2" x2="36.1" y2="84.3"/>
		
			<line display="inline" fill="#FFFFFF" stroke="#000000" stroke-width="4" stroke-linecap="round" stroke-miterlimit="10" x1="84.7" y1="84.4" x2="101.8" y2="84.6"/>
		
			<line display="inline" fill="#FFFFFF" stroke="#000000" stroke-width="4" stroke-linecap="round" stroke-miterlimit="10" x1="60.2" y1="43.2" x2="36.4" y2="84.2"/>
		
			<line display="inline" fill="#FFFFFF" stroke="#000000" stroke-width="4" stroke-linecap="round" stroke-miterlimit="10" x1="84.1" y1="84.2" x2="60.2" y2="43.2"/>
		<path display="inline" fill="#FFFFFF" stroke="#000000" stroke-miterlimit="10" d="M18.4,84.5"/>
		<path display="inline" fill="#FFFFFF" stroke="#000000" stroke-miterlimit="10" d="M102.3,84.4"/>
		
			<line display="inline" fill="#FFFFFF" stroke="#000000" stroke-width="4" stroke-linecap="round" stroke-miterlimit="10" x1="60.2" y1="43.2" x2="60.2" y2="13.8"/>
		<path display="inline" fill="#FFFFFF" stroke="#000000" stroke-miterlimit="10" d="M36.4,84.2"/>
		<path display="inline" fill="#FFFFFF" stroke="#000000" stroke-miterlimit="10" d="M36.4,84.2"/>
		<path display="inline" fill="#FFFFFF" stroke="#000000" stroke-miterlimit="10" d="M84.4,84.3"/>
		<path display="inline" fill="#FFFFFF" stroke="#000000" stroke-miterlimit="10" d="M71.8,63.7"/>
		<path display="inline" fill="#FFFFFF" stroke="#000000" stroke-miterlimit="10" d="M48.3,63.7"/>
		<path display="inline" fill="#FFFFFF" stroke="#000000" stroke-miterlimit="10" d="M84.4,84.3"/>
		<path display="inline" fill="#FFFFFF" stroke="#000000" stroke-miterlimit="10" d="M48.3,63.7"/>
		<path display="inline" fill="#FFFFFF" stroke="#000000" stroke-miterlimit="10" d="M48.3,63.7"/>
	</g>
</g>
<g id="mono_mini" display="none">
	<g id="_x31_" display="inline">
		<line fill="#FFFFFF" stroke="#000000" stroke-miterlimit="10" x1="60.2" y1="12.6" x2="18.3" y2="84.2"/>
		<line fill="#FFFFFF" stroke="#000000" stroke-miterlimit="10" x1="102.6" y1="84.2" x2="60.2" y2="12.6"/>
		<line fill="#FFFFFF" stroke="#000000" stroke-miterlimit="10" x1="18.3" y1="84.2" x2="36.1" y2="84.3"/>
		<line fill="#FFFFFF" stroke="#000000" stroke-miterlimit="10" x1="84.4" y1="84.3" x2="102.3" y2="84.4"/>
		<line fill="#FFFFFF" stroke="#000000" stroke-miterlimit="10" x1="60.2" y1="43.2" x2="36.4" y2="84.2"/>
		<line fill="#FFFFFF" stroke="#000000" stroke-miterlimit="10" x1="84.1" y1="84.2" x2="60.2" y2="43.2"/>
		<line fill="#FFFFFF" stroke="#000000" stroke-linecap="round" stroke-miterlimit="10" x1="18.3" y1="84.2" x2="60" y2="104.4"/>
		<path fill="#FFFFFF" stroke="#000000" stroke-miterlimit="10" d="M77.5,104.6"/>
		<path fill="#FFFFFF" stroke="#000000" stroke-miterlimit="10" d="M42.2,104.4"/>
		
			<line fill="#FFFFFF" stroke="#000000" stroke-linecap="round" stroke-miterlimit="10" x1="60.3" y1="104.4" x2="102.6" y2="84.2"/>
		<line fill="#FFFFFF" stroke="#000000" stroke-linecap="round" stroke-miterlimit="10" x1="60.2" y1="43.2" x2="60.2" y2="12.6"/>
		<path fill="#FFFFFF" stroke="#000000" stroke-miterlimit="10" d="M60,111.9"/>
		<path fill="#FFFFFF" stroke="#000000" stroke-miterlimit="10" d="M36.4,84.2"/>
		<line fill="#FFFFFF" stroke="#000000" stroke-linecap="round" stroke-miterlimit="10" x1="60.1" y1="104.5" x2="36.1" y2="84.3"/>
		<line fill="#FFFFFF" stroke="#000000" stroke-linecap="round" stroke-miterlimit="10" x1="84.4" y1="84.3" x2="60.1" y2="104.5"/>
		<line fill="#FFFFFF" stroke="#000000" stroke-miterlimit="10" x1="48.3" y1="63.7" x2="71.8" y2="63.7"/>
		<line fill="#FFFFFF" stroke="#000000" stroke-miterlimit="10" x1="48.3" y1="63.7" x2="84.1" y2="84.4"/>
		<line fill="#FFFFFF" stroke="#000000" stroke-linecap="round" stroke-miterlimit="10" x1="60.1" y1="104.5" x2="48.3" y2="63.7"/>
	</g>
	<g id="_x32_">
		
			<line display="inline" fill="#FFFFFF" stroke="#000000" stroke-width="2" stroke-linecap="round" stroke-miterlimit="10" x1="60.2" y1="12.6" x2="18.3" y2="84.2"/>
		
			<line display="inline" fill="#FFFFFF" stroke="#000000" stroke-width="2" stroke-linecap="round" stroke-miterlimit="10" x1="102.3" y1="84.4" x2="60.2" y2="12.6"/>
		
			<line display="inline" fill="#FFFFFF" stroke="#000000" stroke-width="2" stroke-linecap="round" stroke-miterlimit="10" x1="18.3" y1="84.2" x2="36.1" y2="84.3"/>
		
			<line display="inline" fill="#FFFFFF" stroke="#000000" stroke-width="2" stroke-linecap="round" stroke-miterlimit="10" x1="84.7" y1="84.4" x2="101.8" y2="84.6"/>
		
			<line display="inline" fill="#FFFFFF" stroke="#000000" stroke-width="2" stroke-linecap="round" stroke-miterlimit="10" x1="60.2" y1="43.2" x2="36.4" y2="84.2"/>
		
			<line display="inline" fill="#FFFFFF" stroke="#000000" stroke-width="2" stroke-linecap="round" stroke-miterlimit="10" x1="84.1" y1="84.2" x2="60.2" y2="43.2"/>
		<path display="inline" fill="#FFFFFF" stroke="#000000" stroke-miterlimit="10" d="M18.4,84.5"/>
		<path display="inline" fill="#FFFFFF" stroke="#000000" stroke-miterlimit="10" d="M102.3,84.4"/>
		
			<line display="inline" fill="#FFFFFF" stroke="#000000" stroke-width="2" stroke-linecap="round" stroke-miterlimit="10" x1="60.2" y1="43.2" x2="60.2" y2="13.8"/>
		<path display="inline" fill="#FFFFFF" stroke="#000000" stroke-miterlimit="10" d="M36.4,84.2"/>
		<path display="inline" fill="#FFFFFF" stroke="#000000" stroke-miterlimit="10" d="M36.4,84.2"/>
		<path display="inline" fill="#FFFFFF" stroke="#000000" stroke-miterlimit="10" d="M84.4,84.3"/>
		<path display="inline" fill="#FFFFFF" stroke="#000000" stroke-miterlimit="10" d="M71.8,63.7"/>
		<path display="inline" fill="#FFFFFF" stroke="#000000" stroke-miterlimit="10" d="M48.3,63.7"/>
		<path display="inline" fill="#FFFFFF" stroke="#000000" stroke-miterlimit="10" d="M84.4,84.3"/>
		<path display="inline" fill="#FFFFFF" stroke="#000000" stroke-miterlimit="10" d="M48.3,63.7"/>
		<path display="inline" fill="#FFFFFF" stroke="#000000" stroke-miterlimit="10" d="M48.3,63.7"/>
	</g>
</g>
<g id="logo_text" display="none">
	
		<text transform="matrix(1 0 0 1 142.3859 53.5909)" display="inline" fill="#1D1E1D" font-family="'Montserrat-Bold'" font-size="21px">ADAMANT</text>
	
		<text transform="matrix(1 0 0 1 129.719 79.29)" display="inline" fill="#1D1E1D" font-family="'Montserrat-Bold'" font-size="21px">MESSENGER</text>
</g>
<g id="text" display="none">
</g>
</svg>
