<?xml version="1.0" encoding="utf-8"?>
<!-- Generator: Adobe Illustrator 22.0.1, SVG Export Plug-In . SVG Version: 6.00 Build 0)  -->
<svg version="1.1" xmlns="http://www.w3.org/2000/svg" xmlns:xlink="http://www.w3.org/1999/xlink" x="0px" y="0px"
	 viewBox="0 0 16 16" enable-background="new 0 0 16 16" xml:space="preserve">
<g id="grad__x28_grey_x29_">
	<path fill="none" stroke="#CCCBCB" stroke-width="0.5" stroke-miterlimit="10" d="M8,15.8"/>
	<path fill="none" stroke="#CCCBCB" stroke-width="0.5" stroke-miterlimit="10" d="M7.9,15.6"/>
	
		<linearGradient id="SVGID_1_" gradientUnits="userSpaceOnUse" x1="161.7161" y1="11.1403" x2="164.9357" y2="16.7168" gradientTransform="matrix(-1 0 0 1 174.7937 0)">
		<stop  offset="0" style="stop-color:#DDDDDD"/>
		<stop  offset="1" style="stop-color:#DDDDDD"/>
	</linearGradient>
	<polygon fill="url(#SVGID_1_)" points="12,12.3 15,12.3 7.9,15.6 7.9,15.6 10.5,13.5 10.8,13.2 	"/>
	<linearGradient id="SVGID_2_" gradientUnits="userSpaceOnUse" x1="-0.3844" y1="9.9103" x2="10.0431" y2="3.89">
		<stop  offset="0" style="stop-color:#444444"/>
		<stop  offset="1" style="stop-color:#DDDDDD"/>
	</linearGradient>
	<polygon fill="url(#SVGID_2_)" points="8,0.3 8,2.9 8,5.4 7,7.1 5.2,10.1 3.9,12.2 1,12.2 3.5,7.9 	"/>
	<linearGradient id="SVGID_3_" gradientUnits="userSpaceOnUse" x1="5.8699" y1="3.8857" x2="16.3645" y2="9.9448">
		<stop  offset="0" style="stop-color:#444444"/>
		<stop  offset="1" style="stop-color:#DDDDDD"/>
	</linearGradient>
	<polygon fill="url(#SVGID_3_)" points="8,0.3 8,2.9 8,5.4 8.9,7.1 10.8,10.1 12,12.3 15,12.2 12.5,7.9 	"/>
	<linearGradient id="SVGID_4_" gradientUnits="userSpaceOnUse" x1="9.3077" y1="9.4118" x2="6.6604" y2="6.7644">
		<stop  offset="0" style="stop-color:#DDDDDD"/>
		<stop  offset="1" style="stop-color:#FFFFFF"/>
	</linearGradient>
	<polygon fill="url(#SVGID_4_)" points="8,5.4 8.9,7.1 9.9,8.8 8,8.8 6,8.8 7,7.1 	"/>
	<linearGradient id="SVGID_5_" gradientUnits="userSpaceOnUse" x1="4.4514" y1="15.6063" x2="4.4514" y2="12.2289">
		<stop  offset="0" style="stop-color:#DDDDDD"/>
		<stop  offset="1" style="stop-color:#EEEEEE"/>
	</linearGradient>
	<polygon fill="url(#SVGID_5_)" points="1,12.3 4,12.2 7.9,15.6 3.1,13.3 2.4,12.9 2,12.8 	"/>
	<linearGradient id="SVGID_6_" gradientUnits="userSpaceOnUse" x1="6.0161" y1="12.2275" x2="11.9007" y2="12.2275">
		<stop  offset="0" style="stop-color:#DDDDDD"/>
		<stop  offset="1" style="stop-color:#FFFFFF"/>
	</linearGradient>
	<polyline fill="url(#SVGID_6_)" points="6,8.8 7.9,15.6 11.9,12.3 	"/>
	<linearGradient id="SVGID_7_" gradientUnits="userSpaceOnUse" x1="10.441" y1="13.0986" x2="7.488" y2="7.9838">
		<stop  offset="0" style="stop-color:#444444"/>
		<stop  offset="1" style="stop-color:#DDDDDD"/>
	</linearGradient>
	<polygon fill="url(#SVGID_7_)" points="9.9,8.8 8.9,8.8 6,8.8 9.9,11.1 11.9,12.2 10.5,9.7 	"/>
	<linearGradient id="SVGID_8_" gradientUnits="userSpaceOnUse" x1="3.996" y1="12.2021" x2="7.8461" y2="12.2021">
		<stop  offset="5.128205e-03" style="stop-color:#DDDDDD"/>
		<stop  offset="1" style="stop-color:#FFFFFF"/>
	</linearGradient>
	<polyline fill="url(#SVGID_8_)" points="6,8.9 4,12.2 7.8,15.5 	"/>
</g>
<g id="mono_mini">
	<g id="_x31_">
		
			<line fill="#FFFFFF" stroke="#666666" stroke-width="0.25" stroke-linecap="round" stroke-miterlimit="10" x1="8" y1="0.3" x2="1" y2="12.2"/>
		
			<line fill="#FFFFFF" stroke="#666666" stroke-width="0.25" stroke-linecap="round" stroke-miterlimit="10" x1="15" y1="12.2" x2="8" y2="0.3"/>
		
			<line fill="#FFFFFF" stroke="#666666" stroke-width="0.25" stroke-linecap="round" stroke-miterlimit="10" x1="1" y1="12.2" x2="3.9" y2="12.2"/>
		
			<line fill="#FFFFFF" stroke="#666666" stroke-width="0.25" stroke-linecap="round" stroke-miterlimit="10" x1="12" y1="12.2" x2="15" y2="12.2"/>
		
			<line fill="#FFFFFF" stroke="#666666" stroke-width="0.25" stroke-linecap="round" stroke-miterlimit="10" x1="8" y1="5.4" x2="4" y2="12.2"/>
		
			<line fill="#FFFFFF" stroke="#666666" stroke-width="0.25" stroke-linecap="round" stroke-miterlimit="10" x1="12" y1="12.2" x2="8" y2="5.4"/>
		
			<line fill="#FFFFFF" stroke="#666666" stroke-width="0.25" stroke-linecap="round" stroke-miterlimit="10" x1="1" y1="12.2" x2="7.9" y2="15.6"/>
		
			<line fill="#FFFFFF" stroke="#666666" stroke-width="0.25" stroke-linecap="round" stroke-miterlimit="10" x1="8" y1="15.6" x2="15" y2="12.2"/>
		
			<line fill="#FFFFFF" stroke="#666666" stroke-width="0.25" stroke-linecap="round" stroke-miterlimit="10" x1="8" y1="5.4" x2="8" y2="0.3"/>
		<path fill="#FFFFFF" stroke="#666666" stroke-width="0.25" stroke-linecap="round" stroke-miterlimit="10" d="M4,12.2"/>
		
			<line fill="#FFFFFF" stroke="#666666" stroke-width="0.25" stroke-linecap="round" stroke-miterlimit="10" x1="8" y1="15.6" x2="3.9" y2="12.2"/>
		
			<line fill="#FFFFFF" stroke="#666666" stroke-width="0.25" stroke-linecap="round" stroke-miterlimit="10" x1="12" y1="12.2" x2="8" y2="15.6"/>
		
			<line fill="#FFFFFF" stroke="#666666" stroke-width="0.25" stroke-linecap="round" stroke-miterlimit="10" x1="6" y1="8.8" x2="9.9" y2="8.8"/>
		
			<line fill="#FFFFFF" stroke="#666666" stroke-width="0.25" stroke-linecap="round" stroke-miterlimit="10" x1="6" y1="8.8" x2="12" y2="12.2"/>
		
			<line fill="#FFFFFF" stroke="#666666" stroke-width="0.25" stroke-linecap="round" stroke-miterlimit="10" x1="8" y1="15.6" x2="6" y2="8.8"/>
	</g>
</g>
</svg>
