<?xml version="1.0" encoding="iso-8859-1"?>
<!-- Generator: Adobe Illustrator 19.0.0, SVG Export Plug-In . SVG Version: 6.00 Build 0)  -->
<svg version="1.1" id="Layer_1" xmlns="http://www.w3.org/2000/svg" xmlns:xlink="http://www.w3.org/1999/xlink" x="0px" y="0px"
	 viewBox="0 0 512 512" style="enable-background:new 0 0 512 512;" xml:space="preserve">
<g transform="translate(-1)">
  <path d="M239.932,42.667h42.667c4.71,0,8.533-3.823,8.533-8.533c0-4.71-3.823-8.533-8.533-8.533h-42.667
    c-4.71,0-8.533,3.823-8.533,8.533C231.399,38.844,235.222,42.667,239.932,42.667z"/>
  <path d="M205.799,42.667h8.533c4.71,0,8.533-3.823,8.533-8.533c0-4.71-3.823-8.533-8.533-8.533h-8.533
    c-4.71,0-8.533,3.823-8.533,8.533C197.266,38.844,201.089,42.667,205.799,42.667z"/>
  <path d="M487.107,182.4c-0.853-3.123-3.379-5.495-6.545-6.135l-59.733-12.109c-2.714-0.572-5.547,0.256-7.569,2.167
    c-2.014,1.911-2.97,4.693-2.569,7.441l8.533,57.882c0.461,3.106,2.586,5.709,5.538,6.775c0.947,0.341,1.929,0.512,2.901,0.512
    c2.065,0,4.096-0.751,5.692-2.167l13.579-12.14c4.292,7.369,6.331,14.76,6.331,22.84c0,25.198-23.017,48.459-59.73,65.523V33.801
    C393.536,15.164,378.372,0,359.727,0H137.203c-18.645,0-33.801,15.164-33.801,33.801v25.865c0,0.023-0.003,0.045-0.003,0.068
    V76.8c-4.71,0-8.533,3.823-8.533,8.533v8.533c0,4.71,3.823,8.533,8.533,8.533v8.533c-4.71,0-8.533,3.823-8.533,8.533V128
    c0,4.71,3.823,8.533,8.533,8.533v8.533c-4.71,0-8.533,3.823-8.533,8.533v8.533c0,4.71,3.823,8.533,8.533,8.533v142.325
    c-36.715-17.065-59.733-40.326-59.733-65.525c0-9.847,3.524-19.635,10.479-29.073c2.799-3.797,1.98-9.139-1.809-11.93
    c-3.797-2.799-9.139-1.98-11.93,1.809c-9.165,12.433-13.807,25.626-13.807,39.194c0,34.234,29.521,64.382,76.8,84.576v120.224
    c0,0.023,0.003,0.045,0.003,0.068V478.2c0,18.637,15.155,33.8,33.801,33.8h222.524c18.645,0,33.809-15.164,33.809-33.8V332.041
    c47.277-20.194,76.797-50.341,76.797-84.574c0-12.197-3.439-23.495-10.472-34.396l24.696-22.078
    C486.962,188.834,487.944,185.515,487.107,182.4z M137.203,17.067h222.524c9.233,0,16.742,7.509,16.742,16.734v25.865
    c0,0.023-0.003,0.045-0.003,0.068v260.373c-35.349,13.206-80.065,21.227-128,21.227c-47.934,0-92.649-8.02-127.997-21.225V33.801
    C120.469,24.576,127.97,17.067,137.203,17.067z M231.399,477.867c0-9.412,7.654-17.067,17.067-17.067s17.067,7.654,17.067,17.067
    s-7.654,17.067-17.067,17.067S231.399,487.279,231.399,477.867z M359.727,494.933h-81.718c2.913-5.024,4.591-10.851,4.591-17.067
    c0-18.825-15.309-34.133-34.133-34.133s-34.133,15.309-34.133,34.133c0,6.215,1.677,12.042,4.591,17.067h-81.72
    c-9.233,0-16.734-7.509-16.734-16.734V338.629c35.942,12.501,79.955,19.771,127.997,19.771c48.043,0,92.057-7.271,128-19.772
    v113.639c0,0.023,0.003,0.045,0.003,0.068V478.2C376.469,487.424,368.96,494.933,359.727,494.933z M433.791,213.478
    l-4.446-30.182l31.147,6.315L433.791,213.478z"/>
  <path d="M146.066,128c4.71,0,8.533-3.823,8.533-8.533V102.4h17.067c4.71,0,8.533-3.823,8.533-8.533
    c0-4.71-3.823-8.533-8.533-8.533h-25.6c-4.71,0-8.533,3.823-8.533,8.533v25.6C137.532,124.177,141.355,128,146.066,128z"/>
  <path d="M171.666,409.6h-17.067v-17.067c0-4.71-3.823-8.533-8.533-8.533c-4.71,0-8.533,3.823-8.533,8.533v25.6
    c0,4.71,3.823,8.533,8.533,8.533h25.6c4.71,0,8.533-3.823,8.533-8.533S176.376,409.6,171.666,409.6z"/>
  <path d="M350.866,384c-4.71,0-8.533,3.823-8.533,8.533V409.6h-17.067c-4.71,0-8.533,3.823-8.533,8.533s3.823,8.533,8.533,8.533
    h25.6c4.71,0,8.533-3.823,8.533-8.533v-25.6C359.399,387.823,355.576,384,350.866,384z"/>
  <path d="M325.266,102.4h17.067v17.067c0,4.71,3.823,8.533,8.533,8.533s8.533-3.823,8.533-8.533v-25.6
    c0-4.71-3.823-8.533-8.533-8.533h-25.6c-4.71,0-8.533,3.823-8.533,8.533C316.732,98.577,320.555,102.4,325.266,102.4z"/>
  <path d="M282.599,247.467h-25.6v-25.6c0-4.71-3.823-8.533-8.533-8.533s-8.533,3.823-8.533,8.533v25.6h-25.6
    c-4.71,0-8.533,3.823-8.533,8.533s3.823,8.533,8.533,8.533h25.6v25.6c0,4.71,3.823,8.533,8.533,8.533s8.533-3.823,8.533-8.533
    v-25.6h25.6c4.71,0,8.533-3.823,8.533-8.533S287.31,247.467,282.599,247.467z"/>
</g>
</svg>
