<?xml version="1.0" encoding="utf-8"?>
<!-- Generator: Adobe Illustrator 22.0.1, SVG Export Plug-In . SVG Version: 6.00 Build 0)  -->
<svg version="1.1" id="Слой_4" xmlns="http://www.w3.org/2000/svg" xmlns:xlink="http://www.w3.org/1999/xlink" x="0px" y="0px"
	 viewBox="0 0 512 512" enable-background="new 0 0 512 512" xml:space="preserve">
<g>
	<path fill="none" d="M127.8,63.7v384.5h256.4V145.5l-81.8-81.8H127.8z M288,373.5v53.4H224v-53.4h-42L256.2,256l74.2,117.5H288z"/>
	<path d="M320.1,21h-203c-17.7,0-32,14.3-32,32V459c0,17.7,14.3,32,32,32h277.7c17.7,0,32-14.3,32-32V127.8
		C385.2,86.1,361.8,62.7,320.1,21z M384.2,448.3H127.8V63.7h174.6l81.8,81.8V448.3z"/>
	<polygon points="182,373.5 224,373.5 224,426.9 288,426.9 288,373.5 330.4,373.5 256.2,256 	"/>
</g>
</svg>
