<?xml version="1.0" encoding="utf-8"?>
<!-- Generator: Adobe Illustrator 22.0.1, SVG Export Plug-In . SVG Version: 6.00 Build 0)  -->
<svg version="1.1" id="Слой_1" xmlns="http://www.w3.org/2000/svg" xmlns:xlink="http://www.w3.org/1999/xlink" x="0px" y="0px"
	 viewBox="0 0 512 512" enable-background="new 0 0 512 512" xml:space="preserve">
<g>
	<path enable-background="new    " d="M256.1,16L47.8,136l170.4,86.4c13,7.2,28.8-1.9,28.8-16.8L256.1,16z"/>
	<path enable-background="new    " d="M256.1,16L464,136l-170.4,86.4c-13,7.2-28.8-1.9-28.8-16.8L256.1,16z"/>
	<path enable-background="new    " d="M256.1,496L464,376l-170.4-86.4c-13-7.2-28.8,1.9-28.8,16.8L256.1,496z"/>
	<path enable-background="new    " d="M256.1,496L48.3,376l170.4-86.4c13-7.2,28.8,1.9,28.8,16.8L256.1,496z"/>
	<path enable-background="new    " d="M47.8,136l0.5,240l159.4-104.6c13-7.2,13-25.9,0-33.1L47.8,136z"/>
	<path enable-background="new    " d="M464.2,136l-0.5,240L303.9,271.4c-13-7.2-13-25.9,0-33.1L464.2,136z"/>
</g>
</svg>
