<?xml version="1.0" encoding="utf-8"?>
<!-- Generator: Adobe Illustrator 22.0.1, SVG Export Plug-In . SVG Version: 6.00 Build 0)  -->
<svg version="1.1" id="Слой_4" xmlns="http://www.w3.org/2000/svg" xmlns:xlink="http://www.w3.org/1999/xlink" x="0px" y="0px"
	 viewBox="0 0 512 512" enable-background="new 0 0 512 512" xml:space="preserve">
<g>
	<rect x="165.4" y="165.4" fill="none" width="32" height="32"/>
	<rect x="314.6" y="165.4" fill="none" width="32" height="32"/>
	<rect x="165.4" y="314.6" fill="none" width="32" height="32"/>
	<path d="M96.2,106.8c0-5.8,4.9-10.7,10.7-10.7h63.6V53.5h-63.6c-29.4,0-53.3,23.9-53.3,53.3v63.9h42.6V106.8z"/>
	<path d="M405.2,53.7h-63.9v42.6h63.9c5.8,0,10.7,4.9,10.7,10.7v63.6h42.6V107C458.5,77.6,434.6,53.7,405.2,53.7z"/>
	<path d="M96.1,405v-63.6H53.5V405c0,29.4,23.9,53.3,53.3,53.3h63.9v-42.6h-63.9C101,415.7,96.1,410.8,96.1,405z"/>
	<path d="M415.8,405.2c0,5.8-4.9,10.7-10.7,10.7h-63.6v42.6h63.6c29.4,0,53.3-23.9,53.3-53.3v-63.9h-42.6V405.2z"/>
	<path d="M122.8,240H240V122.8H122.8V240z M165.4,165.4h32v32h-32V165.4z"/>
	<path d="M389.2,122.8H272V240h117.2V122.8z M346.6,197.4h-32v-32h32V197.4z"/>
	<path d="M122.8,389.2H240V272H122.8V389.2z M165.4,314.6h32v32h-32V314.6z"/>
	<polygon points="389.2,293.3 346.6,293.3 346.6,346.6 293.3,346.6 293.3,389.2 389.2,389.2 	"/>
	<rect x="272" y="272" width="42.6" height="42.6"/>
</g>
</svg>
