<?xml version="1.0" encoding="utf-8"?>
<!-- Generator: Adobe Illustrator 22.0.1, SVG Export Plug-In . SVG Version: 6.00 Build 0)  -->
<svg version="1.1" id="Слой_4" xmlns="http://www.w3.org/2000/svg" xmlns:xlink="http://www.w3.org/1999/xlink" x="0px" y="0px"
	 viewBox="0 0 512 512" enable-background="new 0 0 512 512" xml:space="preserve">
<g>
	<rect x="98.5" y="368.5" fill="none" width="45" height="45"/>
	<rect x="368.5" y="98.5" fill="none" width="45" height="45"/>
	<rect x="98.5" y="98.5" fill="none" width="45" height="45"/>
	<rect x="323.6" y="368.5" fill="none" width="89.9" height="45"/>
	<rect x="413.6" y="368.5" width="45" height="45"/>
	<rect x="233.6" y="323.5" width="45" height="45"/>
	<polygon points="323.5,413.5 323.5,458.5 413.5,458.5 413.5,413.5 323.6,413.5 	"/>
	<rect x="233.6" y="413.5" width="45" height="45"/>
	<rect x="278.6" y="368.5" width="45" height="45"/>
	<rect x="323.5" y="368.5" width="0" height="45"/>
	<polygon points="458.5,278.5 458.5,233.5 368.6,233.5 368.6,323.5 323.5,323.5 323.5,368.5 323.6,368.5 413.5,368.5 413.6,368.5 
		413.6,278.5 	"/>
	<path d="M53.5,458.5h135v-135h-135V458.5z M98.5,368.5h45v45h-45V368.5z"/>
	<path d="M458.4,53.5h-135v135h135V53.5z M413.5,143.5L413.5,143.5h-45v-45h45h0V143.5z"/>
	<rect x="413.5" y="98.5" width="0" height="45"/>
	<path d="M53.5,188.5h135v-135h-135V188.5z M98.5,98.5h45v45h-45V98.5z"/>
	<rect x="231.7" y="94.2" width="45" height="45"/>
	<rect x="98" y="233.7" width="89.9" height="45"/>
	<rect x="231.3" y="188.9" width="45" height="90"/>
	<rect x="301" y="233.8" width="45" height="45"/>
</g>
</svg>
