<?xml version="1.0" encoding="utf-8"?>
<!-- Generator: Adobe Illustrator 22.0.1, SVG Export Plug-In . SVG Version: 6.00 Build 0)  -->
<svg version="1.1" id="Слой_4" xmlns="http://www.w3.org/2000/svg" xmlns:xlink="http://www.w3.org/1999/xlink" x="0px" y="0px"
	 viewBox="0 0 512 512" enable-background="new 0 0 512 512" xml:space="preserve">
<g>
	<path fill="none" d="M288,149.4H96.1v266.4h319.7V96.1H288V149.4z M256,373.2L182,256H224v-58.6H288V256H330L256,373.2z"/>
	<path d="M426.5,53.5H85.5c-17.7,0-32,14.3-32,32v341.1c0,17.7,14.3,32,32,32h341.1c17.7,0,32-14.3,32-32V85.5
		C458.5,67.8,444.2,53.5,426.5,53.5z M415.9,415.9H96.1V149.4H288V96.1h127.9V415.9z"/>
	<polygon points="288,197.4 224,197.4 224,256 182,256 256,373.2 330,256 288,256 	"/>
</g>
</svg>
