<?xml version="1.0" standalone="no"?>
<!DOCTYPE svg PUBLIC "-//W3C//DTD SVG 20010904//EN"
 "http://www.w3.org/TR/2001/REC-SVG-20010904/DTD/svg10.dtd">
<svg version="1.0" xmlns="http://www.w3.org/2000/svg"
 width="512.000000pt" height="512.000000pt" viewBox="0 0 512.000000 512.000000"
 preserveAspectRatio="xMidYMid meet">
<metadata>
Created by potrace 1.11, written by Peter Selinger 2001-2013
</metadata>
<g transform="translate(0.000000,512.000000) scale(0.100000,-0.100000)"
fill="#000000" stroke="none">
<path d="M2365 5114 c-27 -2 -111 -13 -185 -24 -710 -105 -1348 -511 -1752
-1115 -202 -302 -340 -661 -400 -1040 -32 -201 -32 -549 0 -750 115 -729 511
-1352 1117 -1757 302 -202 661 -340 1040 -400 201 -32 549 -32 750 0 284 45
512 117 764 243 501 248 902 649 1150 1150 126 252 198 480 243 764 32 201 32
549 0 750 -115 729 -511 1352 -1117 1757 -299 200 -662 340 -1030 398 -127 20
-459 34 -580 24z m405 -305 c781 -72 1463 -543 1815 -1251 379 -764 293 -1674
-225 -2363 -84 -112 -260 -299 -270 -288 -5 4 -272 782 -595 1728 -323 946
-596 1737 -608 1757 -35 64 -54 68 -327 68 -273 0 -292 -4 -327 -68 -12 -20
-285 -811 -608 -1757 -323 -946 -590 -1724 -595 -1728 -10 -11 -186 176 -270
288 -518 689 -604 1599 -225 2363 419 844 1302 1338 2235 1251z m-24 -964 c57
-176 200 -610 317 -965 l213 -645 -358 -3 c-197 -1 -519 -1 -717 0 l-358 3
320 968 321 968 79 -3 78 -3 105 -320z m841 -2545 c111 -338 203 -620 203
-627 0 -31 -328 -194 -523 -258 -620 -204 -1291 -132 -1859 202 -43 24 -78 49
-78 55 0 10 399 1227 407 1241 2 4 374 6 826 5 l821 -3 203 -615z"/>
</g>
</svg>
