<?xml version="1.0" standalone="no"?>
<!DOCTYPE svg PUBLIC "-//W3C//DTD SVG 20010904//EN"
 "http://www.w3.org/TR/2001/REC-SVG-20010904/DTD/svg10.dtd">
<svg version="1.0" xmlns="http://www.w3.org/2000/svg"
 width="1000.000000pt" height="1000.000000pt" viewBox="0 0 1000.000000 1000.000000"
 preserveAspectRatio="xMidYMid meet">
<metadata>
Created by potrace 1.11, written by Peter Selinger 2001-2013
</metadata>
<g transform="translate(0.000000,1000.000000) scale(0.100000,-0.100000)"
fill="#000000" stroke="none">
<path d="M4994 9665 c-20 -54 -218 -514 -263 -608 -28 -60 -51 -110 -51 -112
0 -14 -369 -760 -470 -950 -257 -484 -391 -802 -456 -1080 -21 -92 -23 -101
-29 -154 -3 -25 -7 -57 -10 -71 -6 -31 -7 -257 -1 -286 2 -12 7 -37 10 -55 35
-220 114 -424 352 -906 196 -397 228 -467 319 -688 139 -342 259 -732 291
-953 3 -20 7 -43 9 -50 3 -7 7 -40 11 -75 3 -34 8 -65 10 -68 5 -8 17 -200 18
-279 l1 -65 -105 -1 -105 -2 -1 57 c-1 54 -12 210 -19 261 -2 14 -6 50 -9 80
-12 96 -56 331 -87 455 -74 296 -186 579 -307 772 -114 185 -355 486 -503 630
-74 72 -111 105 -199 177 -60 49 -230 152 -322 195 -108 51 -279 112 -363 130
-43 9 -81 17 -120 26 -5 2 -28 5 -50 9 -22 3 -56 8 -75 11 -170 26 -448 37
-585 23 -376 -40 -747 -295 -964 -663 -179 -304 -249 -618 -218 -986 7 -81 9
-97 22 -159 2 -14 7 -41 10 -60 43 -262 198 -641 373 -910 116 -179 290 -379
422 -485 49 -39 105 -81 130 -97 l25 -15 2 86 c22 799 344 1243 983 1352 189
32 464 32 590 0 167 -43 242 -75 368 -158 159 -105 299 -273 361 -433 32 -82
61 -209 61 -265 0 -33 -2 -35 -32 -36 -140 -3 -309 -76 -396 -169 -43 -46 -91
-127 -111 -186 -20 -60 -34 -151 -25 -165 2 -5 28 6 57 23 160 97 315 155 436
165 l74 6 -7 -99 c-15 -237 -76 -453 -183 -647 -44 -79 -130 -204 -156 -225
-10 -8 -18 9 -36 81 -53 209 -150 349 -264 382 -237 69 -514 -172 -565 -490
-11 -73 -3 -209 17 -287 30 -116 67 -185 141 -259 97 -97 198 -139 340 -139
425 0 849 452 1038 1105 26 88 40 152 57 251 4 22 8 46 10 54 2 8 6 44 10 80
4 36 8 74 10 85 2 11 4 39 4 63 l1 42 135 0 134 0 -4 -152 c-3 -84 -7 -178
-11 -208 -3 -30 -7 -71 -9 -90 -9 -103 -42 -243 -91 -390 -59 -175 -78 -241
-89 -305 -7 -48 -8 -149 -1 -173 3 -9 7 -28 10 -42 25 -151 278 -847 437
-1204 l21 -49 25 59 c224 543 340 853 409 1098 32 113 39 156 37 238 -1 88
-13 138 -84 347 -33 96 -61 184 -63 195 -2 12 -11 59 -19 106 -24 129 -34 244
-38 440 l-2 125 131 3 132 3 1 -28 c0 -15 2 -39 4 -53 2 -14 9 -65 15 -115 10
-92 18 -138 25 -165 2 -8 7 -31 10 -50 3 -19 13 -62 21 -95 173 -685 613
-1173 1056 -1173 202 0 348 91 436 271 51 103 71 200 67 326 -4 113 -7 132
-44 226 -59 153 -165 271 -297 332 -49 22 -73 27 -139 27 -93 0 -142 -20 -204
-85 -39 -40 -112 -169 -126 -224 -5 -16 -9 -32 -10 -35 -14 -47 -25 -90 -28
-110 -2 -14 -6 -25 -9 -25 -12 0 -92 105 -138 181 -125 204 -199 454 -215 718
l-4 79 75 -7 c122 -10 271 -66 423 -158 35 -21 66 -36 69 -33 3 3 1 40 -5 81
-33 233 -234 414 -486 440 -34 3 -65 8 -69 10 -11 7 2 109 23 193 92 358 437
648 844 708 64 9 321 9 400 0 169 -20 337 -65 455 -122 401 -191 613 -592 634
-1204 3 -62 7 -115 10 -118 10 -11 164 109 252 196 139 137 231 251 339 422
64 101 184 329 200 379 4 14 16 43 26 65 48 105 130 404 145 530 3 33 9 69 11
80 3 11 6 94 8 185 4 217 -19 366 -86 556 -184 523 -621 900 -1103 952 -134
14 -417 3 -591 -24 -86 -13 -103 -16 -195 -35 -487 -105 -861 -373 -1262 -905
-196 -259 -287 -429 -392 -731 -51 -149 -119 -417 -140 -557 -4 -21 -8 -48
-11 -60 -6 -30 -13 -82 -20 -156 -4 -36 -8 -70 -10 -77 -2 -7 -7 -65 -11 -130
-3 -65 -7 -125 -9 -133 -1 -12 -22 -15 -103 -17 l-102 -3 -1 28 c-4 135 12
301 47 507 38 215 159 640 231 805 3 8 7 17 8 20 1 3 5 14 10 25 4 11 20 52
36 90 56 144 146 339 296 644 240 489 300 629 354 838 61 240 58 470 -11 738
-35 136 -128 396 -179 504 -29 61 -276 554 -422 841 -96 190 -198 395 -226
455 -28 61 -74 157 -101 215 -72 152 -187 413 -253 575 -44 107 -59 135 -65
120z"/>
</g>
</svg>
