<?xml version="1.0" encoding="iso-8859-1"?>
<!-- Generator: Adobe Illustrator 19.0.0, SVG Export Plug-In . SVG Version: 6.00 Build 0)  -->
<svg version="1.1" id="Layer_1" xmlns="http://www.w3.org/2000/svg" xmlns:xlink="http://www.w3.org/1999/xlink" x="0px" y="0px"
	 viewBox="0 0 512 512" style="enable-background:new 0 0 512 512;" xml:space="preserve">
<g>
	<g>
		<path d="M256,0C114.51,0,0,114.497,0,256c0,141.49,114.497,256,256,256c141.49,0,256-114.497,256-256C512,114.51,397.503,0,256,0z
			 M371.345,273.067h-98.278v98.278c0,9.425-7.641,17.067-17.067,17.067s-17.067-7.641-17.067-17.067v-98.278h-98.278
			c-9.425,0-17.067-7.641-17.067-17.067s7.641-17.067,17.067-17.067h98.278v-98.278c0-9.425,7.641-17.067,17.067-17.067
			s17.067,7.641,17.067,17.067v98.278h98.278c9.425,0,17.067,7.641,17.067,17.067S380.77,273.067,371.345,273.067z"/>
	</g>
</g>
<g>
</g>
<g>
</g>
<g>
</g>
<g>
</g>
<g>
</g>
<g>
</g>
<g>
</g>
<g>
</g>
<g>
</g>
<g>
</g>
<g>
</g>
<g>
</g>
<g>
</g>
<g>
</g>
<g>
</g>
</svg>
