<?xml version="1.0" encoding="utf-8"?>
<!-- Generator: Adobe Illustrator 22.0.1, SVG Export Plug-In . SVG Version: 6.00 Build 0)  -->
<svg version="1.1" id="Слой_2_1_" xmlns="http://www.w3.org/2000/svg" xmlns:xlink="http://www.w3.org/1999/xlink" x="0px"
	 y="0px" viewBox="0 0 512 512" style="enable-background:new 0 0 512 512;" xml:space="preserve">
<g>
	<g id="path3759">
		<path d="M243.7,458.7c-23.3,0-47.4-1.3-72-2.5c-7.3-0.4-14.7-0.8-22.1-1.1l-38-1.8V53.4l38.8-1.1c93.7-2.6,190.5-5.3,251.9,55
			c36.1,35.4,53.3,86,52.7,154.7l0,1.7c-3.5,69.1-22.6,118.4-58.3,150.6C356.3,450.6,302.8,458.7,243.7,458.7z M191.4,377.3
			c66.1,3.3,122.4,4.2,151.8-22.3c19.1-17.2,29.5-48.1,32-94.6c0.3-45.5-9.1-77-28.8-96.3c-31-30.4-91.3-33.9-155.1-33V377.3z"/>
	</g>
	<g id="rect2987">
		<rect x="55" y="218.7" width="210.9" height="73.7"/>
	</g>
</g>
</svg>
