<?xml version="1.0" encoding="utf-8"?>
<!-- Generator: Adobe Illustrator 22.0.1, SVG Export Plug-In . SVG Version: 6.00 Build 0)  -->
<svg version="1.1" id="Capa_1" xmlns="http://www.w3.org/2000/svg" xmlns:xlink="http://www.w3.org/1999/xlink" x="0px" y="0px"
	 viewBox="0 0 370 373" style="enable-background:new 0 0 370 373;" xml:space="preserve">
<g>
	<g>
		<g>
			<path d="M184.5,340.5l-1.3,0"/>
			<path d="M249.4,199.5L249.4,199.5l-64.5,31.8l-64.5-31.8c-3.4-1.7-7.6-0.9-10.1,2c-2.6,2.8-2.9,7-0.9,10.3l68.3,107.8
				c1.6,2.5,4.3,4,7.2,4c2.9,0,5.6-1.5,7.2-4l68.3-107.8c2-3.2,1.7-7.4-0.9-10.3C257,198.6,252.8,197.9,249.4,199.5z M176.4,285.6
				l-36.3-57.3l36.3,17.9V285.6z M193.4,285.6v-39.4l36.3-17.9L193.4,285.6z"/>
			<path d="M261.4,164.6c-0.2-0.8-0.6-1.6-1-2.4l0,0L192.1,54.4c-0.1-0.2-0.3-0.2-0.5-0.4c-1.5-2.2-4-3.6-6.7-3.6s-5.2,1.3-6.7,3.6
				c-0.1,0.2-0.3,0.2-0.5,0.4l-68.3,107.8l0,0c-0.5,0.7-0.8,1.5-1,2.4c-0.1,0.7-0.2,1.4-0.3,2.2c0,0.1,0,0.3,0.1,0.4
				c0.1,0.9,0.3,1.7,0.5,2.5c0.1,0.3,0.3,0.6,0.4,0.9c0.3,0.5,0.6,1,0.9,1.4c0.1,0.2,0.2,0.3,0.3,0.5c0.1,0.1,0.2,0.1,0.3,0.2
				c0.4,0.4,0.9,0.8,1.4,1.1c0.2,0.2,0.5,0.3,0.7,0.5c0.1,0,0.1,0.1,0.2,0.1l68.3,33.7c2.4,1.2,5.2,1.2,7.6,0l68.3-33.7
				c0.9-0.5,1.7-1.1,2.3-1.8c0.1-0.1,0.2-0.1,0.2-0.2c0.1-0.1,0.2-0.3,0.3-0.5c0.3-0.4,0.6-0.9,0.9-1.4c0.2-0.3,0.3-0.6,0.4-0.9
				c0.3-0.8,0.4-1.7,0.5-2.5c0-0.1,0.1-0.3,0.1-0.4c0-0.4-0.1-0.9-0.2-1.3C261.5,165.2,261.5,164.9,261.4,164.6z M193.4,88.4
				l36.3,57.3l-36.3-17.9L193.4,88.4L193.4,88.4z M176.4,88.4v39.4l-36.3,17.9L176.4,88.4z M184.9,190.9l-49-24.2l49-24.2l49,24.2
				L184.9,190.9z"/>
		</g>
	</g>
</g>
</svg>
