<?xml version="1.0" encoding="iso-8859-1"?>
<!-- Generator: Adobe Illustrator 19.0.0, SVG Export Plug-In . SVG Version: 6.00 Build 0)  -->
<svg version="1.1" id="Layer_1" xmlns="http://www.w3.org/2000/svg" xmlns:xlink="http://www.w3.org/1999/xlink" x="0px" y="0px"
	 viewBox="0 0 512 512" style="enable-background:new 0 0 512 512;" xml:space="preserve">
<g>
	<g>
		<g>
			<path d="M21.333,21.333h213.333v96c0,5.891,4.776,10.667,10.667,10.667h96v74.667h21.333v-85.333
				c-0.009-2.827-1.132-5.537-3.125-7.541L252.875,3.125C250.87,1.132,248.16,0.009,245.333,0H10.667C4.776,0,0,4.776,0,10.667v448
				c0,5.891,4.776,10.667,10.667,10.667H224V448H21.333V21.333z M256,36.416l70.251,70.251H256V36.416z"/>
			<path d="M373.333,234.667c-76.583,0-138.667,62.083-138.667,138.667S296.75,512,373.333,512S512,449.917,512,373.333
				C511.918,296.784,449.883,234.749,373.333,234.667z M373.333,490.667C308.532,490.667,256,438.135,256,373.333
				S308.532,256,373.333,256s117.333,52.532,117.333,117.333C490.596,438.106,438.106,490.596,373.333,490.667z"/>
			<path d="M431.499,362.667H384v-47.52c0-5.891-4.776-10.667-10.667-10.667s-10.667,4.776-10.667,10.667v47.52h-47.52
				c-5.891,0-10.667,4.776-10.667,10.667S309.256,384,315.147,384h47.52v47.52c0,5.891,4.776,10.667,10.667,10.667
				S384,437.411,384,431.52V384h47.499c5.891,0,10.667-4.776,10.667-10.667S437.39,362.667,431.499,362.667z"/>
		</g>
	</g>
</g>
<g>
</g>
<g>
</g>
<g>
</g>
<g>
</g>
<g>
</g>
<g>
</g>
<g>
</g>
<g>
</g>
<g>
</g>
<g>
</g>
<g>
</g>
<g>
</g>
<g>
</g>
<g>
</g>
<g>
</g>
</svg>
