<?xml version="1.0" encoding="utf-8"?>
<!-- Generator: Adobe Illustrator 22.0.1, SVG Export Plug-In . SVG Version: 6.00 Build 0)  -->
<svg version="1.1" id="Capa_1" xmlns="http://www.w3.org/2000/svg" xmlns:xlink="http://www.w3.org/1999/xlink" x="0px" y="0px"
	 viewBox="0 0 490.6 490.6" enable-background="new 0 0 490.6 490.6" xml:space="preserve">
<g>
	<path d="M480.1,164.8h-23v-68c0-17.5-14.2-31.7-31.7-31.7H31.7C14.2,65,0,79.3,0,96.7v297.1c0,17.5,14.2,31.7,31.7,31.7h393.7
		c17.5,0,31.7-14.2,31.7-31.7v-68h23c5.8,0,10.5-4.7,10.5-10.5v-140C490.6,169.5,485.9,164.8,480.1,164.8z M31.7,86h393.7
		c5.9,0,10.7,4.8,10.7,10.7v20.6H21V96.7C21,90.8,25.8,86,31.7,86z M425.4,404.6H31.7c-5.9,0-10.7-4.8-10.7-10.7v-20.6h415.1v20.6
		C436.1,399.8,431.3,404.6,425.4,404.6z M436.1,352.3H21v-214h415.1v26.5h-75.3c-44.4,0-80.5,36.1-80.5,80.5s36.1,80.5,80.5,80.5
		h75.3L436.1,352.3L436.1,352.3z M469.6,304.8H360.8c-32.8,0-59.5-26.7-59.5-59.5c0-32.8,26.7-59.5,59.5-59.5h108.8L469.6,304.8
		L469.6,304.8z"/>
	<path d="M317.9,244.3c0,22.2,18,40.2,40.2,40.2s40.2-18,40.2-40.2s-18-40.2-40.2-40.2C335.9,204.1,317.9,222.2,317.9,244.3z
		 M377.3,244.3c0,10.6-8.6,19.2-19.2,19.2c-10.6,0-19.2-8.6-19.2-19.2c0-10.6,8.6-19.2,19.2-19.2S377.3,233.7,377.3,244.3z"/>
</g>
<g>
	<g>
		<g>
			<path d="M155,353.1h-0.9"/>
		</g>
	</g>
</g>
<g id="_x30_5">
	<rect x="61.5" y="230" transform="matrix(0.5056 -0.8628 0.8628 0.5056 -138.0267 220.5406)" width="123.9" height="1.5"/>
	<rect x="185.6" y="168.6" transform="matrix(0.8605 -0.5095 0.5095 0.8605 -91.5435 127.1438)" width="1.5" height="124.3"/>
	<rect x="104.4" y="271.2" transform="matrix(5.533769e-03 -1 1 5.533769e-03 -180.1402 388.2198)" width="1.5" height="26.9"/>
	<rect x="202.9" y="271.2" transform="matrix(5.533769e-03 -1 1 5.533769e-03 -82.1309 486.7729)" width="1.5" height="26.9"/>
	<rect x="101.5" y="252.8" transform="matrix(0.5018 -0.865 0.865 0.5018 -151.098 244.7512)" width="70.8" height="1.5"/>
	<rect x="171.8" y="218.1" transform="matrix(0.8639 -0.5036 0.5036 0.8639 -104.211 121.3904)" width="1.5" height="70.9"/>
	<path d="M154.4,315.8c-0.2,0-0.4,0-0.6-0.1l-62.1-28.8c-0.7-0.3-1.1-1.2-0.7-2c0.3-0.7,1.2-1.1,2-0.7L155,313
		c0.7,0.3,1.1,1.2,0.7,2C155.5,315.5,155,315.8,154.4,315.8z"/>
	<path d="M154.8,315.8c-0.6,0-1.1-0.3-1.4-0.9c-0.3-0.7,0-1.6,0.7-2l63.5-29c0.7-0.3,1.6,0,2,0.7c0.3,0.7,0,1.6-0.7,2l-63.5,29
		C155.3,315.8,155.1,315.8,154.8,315.8z"/>
	<rect x="154.4" y="177.8" width="1.5" height="44.8"/>
	<rect x="135.4" y="276" transform="matrix(0.6505 -0.7595 0.7595 0.6505 -179.4999 208.539)" width="3" height="46.6"/>
	<rect x="149.1" y="298" transform="matrix(0.7666 -0.6421 0.6421 0.7666 -152.037 180.6282)" width="46.7" height="3"/>
	<rect x="136.5" y="252.5" width="35.8" height="3"/>
	<rect x="162.2" y="238.1" transform="matrix(0.5006 -0.8657 0.8657 0.5006 -151.1407 276.0202)" width="3" height="61.8"/>
	<rect x="144.2" y="252.3" transform="matrix(0.9606 -0.2778 0.2778 0.9606 -73.1702 51.672)" width="3" height="63.4"/>
</g>
<g id="_x31_">
	<path d="M92.7,285.4c-0.4,0-0.8-0.1-1.1-0.3c-1.1-0.6-1.4-2-0.8-3.1l62-105.9c0.6-1.1,2-1.4,3.1-0.8c1.1,0.6,1.4,2,0.8,3.1
		l-62,105.9C94.2,285,93.5,285.4,92.7,285.4z"/>
	<path d="M218,286.4c-0.8,0-1.5-0.4-1.9-1.1l-63.3-106.9c-0.6-1.1-0.3-2.4,0.8-3.1c1.1-0.6,2.4-0.3,3.1,0.8L219.9,283
		c0.6,1.1,0.3,2.4-0.8,3.1C218.8,286.3,218.4,286.4,218,286.4z"/>
	<path d="M119.3,287C119.3,287,119.3,287,119.3,287l-26.9-0.1c-1.2,0-2.2-1-2.2-2.3c0-1.2,1-2.2,2.2-2.2c0,0,0,0,0,0l26.9,0.1
		c1.2,0,2.2,1,2.2,2.3C121.5,286,120.5,287,119.3,287z"/>
	<path d="M191,286.8c-1.2,0-2.2-1-2.2-2.2c0-1.2,1-2.2,2.2-2.3l26.9-0.1c0,0,0,0,0,0c1.2,0,2.2,1,2.2,2.2c0,1.2-1,2.2-2.2,2.3
		L191,286.8C191,286.8,191,286.8,191,286.8z"/>
	<rect x="101.5" y="251.3" transform="matrix(0.5019 -0.8649 0.8649 0.5019 -151.0966 244.704)" width="70.8" height="4.5"/>
	<rect x="170.3" y="218.1" transform="matrix(0.8639 -0.5036 0.5036 0.8639 -104.2092 121.3865)" width="4.5" height="70.9"/>
	<rect x="152.5" y="178.7" width="4.5" height="44.8"/>
</g>
</svg>
