<?xml version="1.0" encoding="utf-8"?>
<!-- Generator: Adobe Illustrator 22.0.1, SVG Export Plug-In . SVG Version: 6.00 Build 0)  -->
<svg version="1.1" id="Capa_1" xmlns="http://www.w3.org/2000/svg" xmlns:xlink="http://www.w3.org/1999/xlink" x="0px" y="0px"
	 viewBox="0 0 490.6 490.6" style="enable-background:new 0 0 490.6 490.6;" xml:space="preserve">
<g>
	<g>
		<g>
			<path d="M244.9,480.1h-2"/>
		</g>
	</g>
</g>
<g id="_x30_5">
	<rect x="41.2" y="211.7" transform="matrix(0.5056 -0.8628 0.8628 0.5056 -96.9861 257.4957)" width="270" height="3.3"/>
	<rect x="311.6" y="78.1" transform="matrix(0.8605 -0.5095 0.5095 0.8605 -65.0774 189.3777)" width="3.3" height="270.9"/>
	<rect x="134.5" y="301.6" transform="matrix(5.533684e-03 -1 1 5.533684e-03 -195.5701 465.2039)" width="3.3" height="58.6"/>
	<rect x="349.2" y="301.7" transform="matrix(5.533684e-03 -1 1 5.533684e-03 17.8801 680.0701)" width="3.3" height="58.6"/>
	<rect x="128.3" y="261.6" transform="matrix(0.5018 -0.865 0.865 0.5018 -125.3052 308.851)" width="154.3" height="3.3"/>
	<rect x="281.5" y="185.9" transform="matrix(0.8639 -0.5036 0.5036 0.8639 -94.0023 178.3732)" width="3.3" height="154.5"/>
	<path d="M243.6,398.8c-0.4,0-0.9,0-1.3-0.2l-135.3-62.8c-1.5-0.7-2.4-2.6-1.5-4.4c0.7-1.5,2.6-2.4,4.4-1.5l135.1,62.8
		c1.5,0.7,2.4,2.6,1.5,4.4C245.9,398.2,244.9,398.8,243.6,398.8z"/>
	<path d="M244.4,398.8c-1.3,0-2.4-0.7-3.1-2c-0.7-1.5,0-3.5,1.5-4.4l138.4-63.2c1.5-0.7,3.5,0,4.4,1.5c0.7,1.5,0,3.5-1.5,4.4
		l-138.4,63.2C245.5,398.8,245.1,398.8,244.4,398.8z"/>
	<rect x="243.6" y="98.1" width="3.3" height="97.6"/>
	<rect x="202.1" y="312" transform="matrix(0.6505 -0.7595 0.7595 0.6505 -203.7548 282.7581)" width="6.5" height="101.5"/>
	<rect x="232.1" y="360" transform="matrix(0.7666 -0.6421 0.6421 0.7666 -167.238 266.4608)" width="101.8" height="6.5"/>
	<rect x="204.5" y="260.9" width="78" height="6.5"/>
	<rect x="260.5" y="229.4" transform="matrix(0.5006 -0.8657 0.8657 0.5006 -125.1731 376.5541)" width="6.5" height="134.7"/>
	<rect x="221.3" y="260.5" transform="matrix(0.9606 -0.2778 0.2778 0.9606 -82.7098 75.3574)" width="6.5" height="138.1"/>
</g>
<g id="_x31_">
	<path d="M109.1,332.6c-0.9,0-1.7-0.2-2.4-0.7c-2.4-1.3-3.1-4.4-1.7-6.8L240.1,94.4c1.3-2.4,4.4-3.1,6.8-1.7
		c2.4,1.3,3.1,4.4,1.7,6.8L113.5,330.2C112.4,331.7,110.8,332.6,109.1,332.6z"/>
	<path d="M382.1,334.8c-1.7,0-3.3-0.9-4.1-2.4L240.1,99.4c-1.3-2.4-0.7-5.2,1.7-6.8c2.4-1.3,5.2-0.7,6.8,1.7l137.7,232.9
		c1.3,2.4,0.7,5.2-1.7,6.8C383.9,334.5,383,334.8,382.1,334.8z"/>
	<path d="M167.1,336.1L167.1,336.1l-58.6-0.2c-2.6,0-4.8-2.2-4.8-5c0-2.6,2.2-4.8,4.8-4.8l0,0l58.6,0.2c2.6,0,4.8,2.2,4.8,5
		C171.9,333.9,169.7,336.1,167.1,336.1z"/>
	<path d="M323.3,335.6c-2.6,0-4.8-2.2-4.8-4.8c0-2.6,2.2-4.8,4.8-5l58.6-0.2l0,0c2.6,0,4.8,2.2,4.8,4.8c0,2.6-2.2,4.8-4.8,5
		L323.3,335.6L323.3,335.6z"/>
	<rect x="128.3" y="258.3" transform="matrix(0.5019 -0.8649 0.8649 0.5019 -125.3072 308.7775)" width="154.3" height="9.8"/>
	<rect x="278.2" y="185.9" transform="matrix(0.8639 -0.5036 0.5036 0.8639 -93.9974 178.3741)" width="9.8" height="154.5"/>
	<rect x="239.4" y="100.1" width="9.8" height="97.6"/>
</g>
</svg>
