<?xml version="1.0" encoding="utf-8"?>
<!-- Generator: Adobe Illustrator 22.0.1, SVG Export Plug-In . SVG Version: 6.00 Build 0)  -->
<svg version="1.1" id="Слой_1" xmlns="http://www.w3.org/2000/svg" xmlns:xlink="http://www.w3.org/1999/xlink" x="0px" y="0px"
	 viewBox="0 0 512 512" enable-background="new 0 0 512 512" xml:space="preserve">
<g id="Слой_2_1_" display="none">
	<g display="inline">
		<path d="M177.6,223.2l77.4-77.4l77.4,77.4l45-45L255,55.8L132.6,178.2L177.6,223.2 M55.8,255l45-45l45,45l-45,45L55.8,255z
			 M177.6,286.8l77.4,77.4l77.4-77.4l45,45l0,0L255,454.2L132.6,331.8l-0.1-0.1L177.6,286.8 M364.2,255l45-45l45,45l-45,45
			L364.2,255z"/>
		<path d="M300.7,255L300.7,255L255,209.3l-33.8,33.8l0,0l-3.9,3.9l-8,8l-0.1,0.1l0.1,0.1l45.6,45.6L300.7,255L300.7,255L300.7,255"
			/>
	</g>
</g>
<g>
	<path d="M279.6,106c10.2,10.8,19.4,20.4,28.6,30.1c8.6,9.1,17.1,18.3,25.7,27.4c4.9,5.1,11.1,6.9,18,6.7
		c48.1-1.4,82.1,22.1,103.9,62.6c38.4,71.4-6.1,159.1-86.3,171.4c-14.2,2.2-28.9,1.3-43.4,1.6c-12.7,0.2-25.4,0-38.1,0.1
		c-8.2,0-9.2-0.8-9.2-8.8c0-15.8,0.2-31.6-0.1-47.4c-0.1-6,2.2-8,8.2-8c21.8,0.2,43.5,0.2,65.3-0.1c29.4-0.4,53.9-24.8,54.1-53.8
		c0.3-29.3-24.2-54.1-53.9-54.7c-9.5-0.2-9.5-0.2-9.5,9.1c0,13.2,0,26.4,0.2,39.5c0.1,4.8-1.7,6.8-6.5,6.7
		c-17.1-0.1-34.2-0.1-51.4,0c-4.9,0-6.5-2.3-6.5-6.9c0.1-56.7,0-113.4,0.1-170.1C278.7,110.4,279.1,109.1,279.6,106z"/>
	<path d="M179.4,405.9c-19.6-1.2-39.5-0.4-58.1-5.1C66.1,387,31.3,336.4,34.5,278c2.9-53.3,45.7-99.5,100-107.9
		c4.1-0.6,8.3-1.2,12.4-1.2c23.7-0.1,47.5,0.1,71.2-0.2c5.1,0,7.2,1.6,7.1,6.7c-0.3,24.6-0.5,49.2-0.5,73.7
		c0,10.5,0.2,21.1,0.5,31.6c0.1,4.9-1.7,7.2-6.9,7.1c-16.7-0.3-33.4-0.5-50.1-0.2c-6,0.1-7.5-2.1-7.4-7.7c0.4-13.4,0-26.8,0.4-40.2
		c0.1-5.7-2-7.8-7.7-7.7c-30.4,0.2-55.7,25.3-55.8,55.4c0,28.8,24.9,53.6,54.7,54c21.5,0.3,43.1,0.2,64.6,0c5.8-0.1,8.3,1.6,8.2,7.8
		c-0.3,16.2-0.3,32.5,0,48.7c0.1,6.2-2.5,8-8.3,7.9C204.4,405.8,191.9,405.9,179.4,405.9C178.6,405.9,180,405.9,179.4,405.9z"/>
</g>
</svg>
