<?xml version="1.0" encoding="utf-8"?>
<!-- Generator: Adobe Illustrator 22.0.1, SVG Export Plug-In . SVG Version: 6.00 Build 0)  -->
<svg version="1.1" id="Слой_1" xmlns="http://www.w3.org/2000/svg" xmlns:xlink="http://www.w3.org/1999/xlink" x="0px" y="0px"
	 viewBox="0 0 490.6 490.6" enable-background="new 0 0 490.6 490.6" xml:space="preserve">
<g id="Capa_1">
	<g>
		<path d="M480.1,164.8h-23v-68c0-17.5-14.2-31.7-31.7-31.7H31.7C14.2,65,0,79.3,0,96.7v297.1c0,17.5,14.2,31.7,31.7,31.7h393.7
			c17.5,0,31.7-14.2,31.7-31.7v-68h23c5.8,0,10.5-4.7,10.5-10.5v-140C490.6,169.5,485.9,164.8,480.1,164.8z M31.7,86h393.7
			c5.9,0,10.7,4.8,10.7,10.7v20.6H21V96.7C21,90.8,25.8,86,31.7,86z M425.4,404.6H31.7c-5.9,0-10.7-4.8-10.7-10.7v-20.6h415.1v20.6
			C436.1,399.8,431.3,404.6,425.4,404.6z M436.1,352.3H21v-214h415.1v26.5h-75.3c-44.4,0-80.5,36.1-80.5,80.5s36.1,80.5,80.5,80.5
			h75.3L436.1,352.3L436.1,352.3z M469.6,304.8H360.8c-32.8,0-59.5-26.7-59.5-59.5s26.7-59.5,59.5-59.5h108.8L469.6,304.8
			L469.6,304.8z"/>
		<path d="M317.9,244.3c0,22.2,18,40.2,40.2,40.2s40.2-18,40.2-40.2s-18-40.2-40.2-40.2S317.9,222.2,317.9,244.3z M377.3,244.3
			c0,10.6-8.6,19.2-19.2,19.2s-19.2-8.6-19.2-19.2c0-10.6,8.6-19.2,19.2-19.2S377.3,233.7,377.3,244.3z"/>
	</g>
	<g>
		<g>
			<g>
				<path d="M155,353.1h-0.9"/>
			</g>
		</g>
	</g>
</g>
<g>
	<path d="M164.7,179.1c4.7,5,8.9,9.4,13.1,13.8c3.9,4.2,7.8,8.4,11.8,12.6c2.2,2.4,5.1,3.2,8.2,3.1c22.1-0.6,37.7,10.1,47.7,28.8
		c17.7,32.8-2.8,73.1-39.6,78.7c-6.5,1-13.3,0.6-19.9,0.7c-5.8,0.1-11.7,0-17.5,0c-3.8,0-4.2-0.4-4.2-4.1c0-7.3,0.1-14.5,0-21.8
		c0-2.8,1-3.7,3.8-3.7c10,0.1,20,0.1,30-0.1c13.5-0.2,24.7-11.4,24.9-24.7c0.1-13.5-11.1-24.9-24.7-25.1c-4.4-0.1-4.4-0.1-4.4,4.2
		c0,6.1,0,12.1,0.1,18.2c0,2.2-0.8,3.1-3,3.1c-7.9-0.1-15.7-0.1-23.6,0c-2.2,0-3-1.1-3-3.2c0-26,0-52.1,0-78.1
		C164.3,181.1,164.4,180.5,164.7,179.1z"/>
	<path d="M118.7,316.9c-9-0.5-18.1-0.2-26.7-2.4c-25.3-6.4-41.3-29.6-39.8-56.4c1.3-24.5,21-45.7,45.9-49.6c1.9-0.3,3.8-0.5,5.7-0.5
		c10.9-0.1,21.8,0,32.7-0.1c2.3,0,3.3,0.7,3.3,3.1c-0.1,11.3-0.2,22.6-0.2,33.9c0,4.8,0.1,9.7,0.2,14.5c0.1,2.2-0.8,3.3-3.2,3.3
		c-7.7-0.1-15.3-0.2-23-0.1c-2.8,0-3.4-1-3.4-3.5c0.2-6.2,0-12.3,0.2-18.5c0.1-2.6-0.9-3.6-3.5-3.5c-13.9,0.1-25.6,11.6-25.6,25.4
		c0,13.2,11.4,24.6,25.1,24.8c9.9,0.1,19.8,0.1,29.7,0c2.7,0,3.8,0.7,3.8,3.6c-0.1,7.5-0.1,14.9,0,22.4c0,2.8-1.2,3.7-3.8,3.6
		C130.1,316.8,124.4,316.9,118.7,316.9C118.3,316.8,118.9,316.9,118.7,316.9z"/>
</g>
</svg>
