<?xml version="1.0" encoding="utf-8"?>
<!-- Generator: Adobe Illustrator 22.0.1, SVG Export Plug-In . SVG Version: 6.00 Build 0)  -->
<svg version="1.1" id="Capa_1" xmlns="http://www.w3.org/2000/svg" xmlns:xlink="http://www.w3.org/1999/xlink" x="0px" y="0px"
	 viewBox="0 0 490.6 490.6" style="enable-background:new 0 0 490.6 490.6;" xml:space="preserve">
<g>
	<path d="M480.1,164.8h-23v-68c0-17.5-14.2-31.7-31.7-31.7H31.7C14.2,65,0,79.3,0,96.7v297.1c0,17.5,14.2,31.7,31.7,31.7h393.7
		c17.5,0,31.7-14.2,31.7-31.7v-68h23c5.8,0,10.5-4.7,10.5-10.5v-140C490.6,169.5,485.9,164.8,480.1,164.8z M31.7,86h393.7
		c5.9,0,10.7,4.8,10.7,10.7v20.6H21V96.7C21,90.8,25.8,86,31.7,86z M425.4,404.6H31.7c-5.9,0-10.7-4.8-10.7-10.7v-20.6h415.1v20.6
		C436.1,399.8,431.3,404.6,425.4,404.6z M436.1,352.3H21v-214h415.1v26.5h-75.3c-44.4,0-80.5,36.1-80.5,80.5s36.1,80.5,80.5,80.5
		h75.3L436.1,352.3L436.1,352.3z M469.6,304.8H360.8c-32.8,0-59.5-26.7-59.5-59.5s26.7-59.5,59.5-59.5h108.8L469.6,304.8
		L469.6,304.8z"/>
	<path d="M317.9,244.3c0,22.2,18,40.2,40.2,40.2s40.2-18,40.2-40.2s-18-40.2-40.2-40.2S317.9,222.2,317.9,244.3z M377.3,244.3
		c0,10.6-8.6,19.2-19.2,19.2s-19.2-8.6-19.2-19.2c0-10.6,8.6-19.2,19.2-19.2S377.3,233.7,377.3,244.3z"/>
</g>
<g>
	<g>
		<g>
			<path d="M155,353.1h-0.9"/>
		</g>
	</g>
</g>
<g>
	<path d="M121.7,235.5l30.3-30.3l30.3,30.3l17.6-17.6L152,170l-47.9,47.9L121.7,235.5 M74,248l17.6-17.6l17.6,17.6l-17.6,17.6
		L74,248z M121.7,260.5l30.3,30.3l30.3-30.3l17.6,17.6l0,0L152,326l-47.9-47.9l0,0L121.7,260.5 M194.8,248l17.6-17.6L230,248
		l-17.6,17.6L194.8,248z"/>
	<path d="M169.9,248L169.9,248L152,230.1l-13.2,13.2l0,0l-1.5,1.5l-3.1,3.1l0,0l0,0l17.9,17.9L169.9,248L169.9,248L169.9,248"/>
</g>
</svg>
