<?xml version="1.0" encoding="utf-8"?>
<!-- Generator: Adobe Illustrator 22.0.1, SVG Export Plug-In . SVG Version: 6.00 Build 0)  -->
<svg version="1.1" xmlns="http://www.w3.org/2000/svg" xmlns:xlink="http://www.w3.org/1999/xlink" x="0px" y="0px"
	 viewBox="0 0 512 512" enable-background="new 0 0 512 512" xml:space="preserve">
<g id="Слой_2_1_" display="none">
	<g display="inline">
		<path d="M177.6,223.2l77.4-77.4l77.4,77.4l45-45L255,55.8L132.6,178.2L177.6,223.2 M55.8,255l45-45l45,45l-45,45L55.8,255z
			 M177.6,286.8l77.4,77.4l77.4-77.4l45,45l0,0L255,454.2L132.6,331.8l-0.1-0.1L177.6,286.8 M364.2,255l45-45l45,45l-45,45
			L364.2,255z"/>
		<path d="M300.7,255L300.7,255L255,209.3l-33.8,33.8l0,0l-3.9,3.9l-8,8l-0.1,0.1l0.1,0.1l45.6,45.6L300.7,255L300.7,255L300.7,255"
			/>
	</g>
</g>
<g id="Слой_3">
	<path d="M389.8,248.2c0,0,28.7-21.8,28.4-83.5c0,0,3.2-63.7-67.2-96.2c-20.6-9.2-42.8-13.8-65.3-13.6H80.7c-3-0.2-5.6,2.1-5.9,5.1
		v389.8c0.2,3,2.8,5.3,5.8,5.1l211.8-1.2c34.5,0.3,69.4-6.4,96.5-25.2c25.3-17.6,39.8-36.5,45.5-80.6
		C434.5,348,444.1,284.2,389.8,248.2z M330.4,199L229.7,308.7h100.8v42.9H155.3v-35.6l103.3-111.1H155.3v-40.3h175.2L330.4,199z"/>
</g>
</svg>
