<?xml version="1.0" encoding="utf-8"?>
<!-- Generator: Adobe Illustrator 22.0.1, SVG Export Plug-In . SVG Version: 6.00 Build 0)  -->
<svg version="1.1" xmlns="http://www.w3.org/2000/svg" xmlns:xlink="http://www.w3.org/1999/xlink" x="0px" y="0px"
	 viewBox="0 0 490.6 490.6" enable-background="new 0 0 490.6 490.6" xml:space="preserve">
<g id="Capa_1">
	<g>
		<path d="M480.1,164.8h-23v-68c0-17.5-14.2-31.7-31.7-31.7H31.7C14.2,65,0,79.3,0,96.7v297.1c0,17.5,14.2,31.7,31.7,31.7h393.7
			c17.5,0,31.7-14.2,31.7-31.7v-68h23c5.8,0,10.5-4.7,10.5-10.5v-140C490.6,169.5,485.9,164.8,480.1,164.8z M31.7,86h393.7
			c5.9,0,10.7,4.8,10.7,10.7v20.6H21V96.7C21,90.8,25.8,86,31.7,86z M425.4,404.6H31.7c-5.9,0-10.7-4.8-10.7-10.7v-20.6h415.1v20.6
			C436.1,399.8,431.3,404.6,425.4,404.6z M436.1,352.3H21v-214h415.1v26.5h-75.3c-44.4,0-80.5,36.1-80.5,80.5s36.1,80.5,80.5,80.5
			h75.3L436.1,352.3L436.1,352.3z M469.6,304.8H360.8c-32.8,0-59.5-26.7-59.5-59.5s26.7-59.5,59.5-59.5h108.8L469.6,304.8
			L469.6,304.8z"/>
		<path d="M317.9,244.3c0,22.2,18,40.2,40.2,40.2s40.2-18,40.2-40.2s-18-40.2-40.2-40.2S317.9,222.2,317.9,244.3z M377.3,244.3
			c0,10.6-8.6,19.2-19.2,19.2s-19.2-8.6-19.2-19.2c0-10.6,8.6-19.2,19.2-19.2S377.3,233.7,377.3,244.3z"/>
	</g>
	<g>
		<g>
			<g>
				<path d="M155,353.1h-0.9"/>
			</g>
		</g>
	</g>
</g>
<g id="Слой_2">
	<path d="M204.6,245.4c0,0,11.2-8.5,11.1-32.6c0,0,1.3-24.8-26.2-37.5c-8-3.6-16.7-5.4-25.5-5.3H84c-1.2-0.1-2.2,0.8-2.3,2v152
		c0.1,1.2,1.1,2.1,2.3,2l82.6-0.5c13.5,0.1,27-2.5,37.6-9.8c9.9-6.9,15.5-14.2,17.7-31.4C222,284.3,225.7,259.4,204.6,245.4z
		 M181.4,226.2l-39.3,42.8h39.3v16.7h-68.3v-13.9l40.3-43.3h-40.3v-15.7h68.3L181.4,226.2z"/>
</g>
</svg>
