<?xml version="1.0" encoding="utf-8"?>
<!-- Generator: Adobe Illustrator 22.0.1, SVG Export Plug-In . SVG Version: 6.00 Build 0)  -->
<svg version="1.1" id="Слой_1" xmlns="http://www.w3.org/2000/svg" xmlns:xlink="http://www.w3.org/1999/xlink" x="0px" y="0px"
	 viewBox="0 0 490.6 490.6" enable-background="new 0 0 490.6 490.6" xml:space="preserve">
<g>
	<path fill="none" d="M21,393.9c0,5.9,4.8,10.7,10.7,10.7h393.7c5.9,0,10.7-4.8,10.7-10.7v-20.6H21V393.9z"/>
	<path fill="none" d="M360.8,325.8c-44.4,0-80.5-36.1-80.5-80.5c0-44.4,36.1-80.5,80.5-80.5h75.3v-26.5H21v214h415.1l0-26.5H360.8z
		 M60.5,250.9c1.8-7.2,4.4-19.2,22.7-19.2h71.7c0,0-0.7,3.8-3,13.3c-1.8,7.2-4.4,19.2-22.7,19.2H57.5
		C57.5,264.2,58.3,260.3,60.5,250.9z M243.8,250.7c-5.8,31.7-20.5,55.9-45.1,67.3c-11.1,5.1-21.6,8-46.2,8H82.7l5.8-32.4l61.4,0
		c36.9,0,46.7-16,51.5-30c1.8-5.3,6-21.5,6.1-31.1c0.2-18.7-8.9-30-40-30l-63.1-0.1l5.8-32.4h70C241.7,170,252.5,203.5,243.8,250.7z
		"/>
	<path fill="none" d="M436.1,96.7c0-5.9-4.8-10.7-10.7-10.7H31.7C25.8,86,21,90.8,21,96.7v20.6h415.1V96.7z"/>
	<circle fill="none" cx="358.1" cy="244.3" r="19.2"/>
	<path fill="none" d="M360.8,185.8c-32.8,0-59.5,26.7-59.5,59.5s26.7,59.5,59.5,59.5h108.8l0-119H360.8z M358.1,284.5
		c-22.2,0-40.2-18-40.2-40.2c0-22.1,18-40.2,40.2-40.2s40.2,18,40.2,40.2C398.3,266.5,380.3,284.5,358.1,284.5z"/>
	<path d="M480.1,164.8h-23v-68c0-17.5-14.2-31.7-31.7-31.7H31.7C14.2,65,0,79.3,0,96.7v297.1c0,17.5,14.2,31.7,31.7,31.7h393.7
		c17.5,0,31.7-14.2,31.7-31.7v-68h23c5.8,0,10.5-4.7,10.5-10.5v-140C490.6,169.5,485.9,164.8,480.1,164.8z M21,96.7
		C21,90.8,25.8,86,31.7,86h393.7c5.9,0,10.7,4.8,10.7,10.7v20.6H21V96.7z M436.1,393.9c0,5.9-4.8,10.7-10.7,10.7H31.7
		c-5.9,0-10.7-4.8-10.7-10.7v-20.6h415.1V393.9z M21,352.3v-214h415.1v26.5h-75.3c-44.4,0-80.5,36.1-80.5,80.5
		c0,44.4,36.1,80.5,80.5,80.5h75.3l0,26.5H21z M360.8,304.8c-32.8,0-59.5-26.7-59.5-59.5s26.7-59.5,59.5-59.5h108.8l0,119H360.8z"/>
	<path d="M358.1,204.1c-22.2,0-40.2,18.1-40.2,40.2c0,22.2,18,40.2,40.2,40.2s40.2-18,40.2-40.2
		C398.3,222.1,380.3,204.1,358.1,204.1z M358.1,263.5c-10.6,0-19.2-8.6-19.2-19.2c0-10.6,8.6-19.2,19.2-19.2
		c10.6,0,19.2,8.6,19.2,19.2C377.3,254.9,368.7,263.5,358.1,263.5z"/>
	<path d="M180.1,170h-70l-5.8,32.4l63.1,0.1c31.1,0,40.3,11.3,40,30c-0.1,9.6-4.3,25.8-6.1,31.1c-4.8,14-14.7,30-51.5,30l-61.4,0
		L82.7,326h69.8c24.6,0,35.1-2.9,46.2-8c24.6-11.4,39.2-35.6,45.1-67.3C252.5,203.5,241.7,170,180.1,170z"/>
	<path d="M151.9,245c2.3-9.4,3-13.3,3-13.3H83.2c-18.3,0-20.9,11.9-22.7,19.2c-2.3,9.4-3,13.3-3,13.3h71.7
		C147.5,264.2,150.1,252.2,151.9,245z"/>
</g>
</svg>
