<?xml version="1.0" encoding="utf-8"?>
<!-- Generator: Adobe Illustrator 22.0.1, SVG Export Plug-In . SVG Version: 6.00 Build 0)  -->
<svg version="1.1" id="Capa_1" xmlns="http://www.w3.org/2000/svg" xmlns:xlink="http://www.w3.org/1999/xlink" x="0px" y="0px"
	 viewBox="0 0 490.6 490.6" style="enable-background:new 0 0 490.6 490.6;" xml:space="preserve">
<g>
	<path d="M480.1,164.8h-23v-68c0-17.5-14.2-31.7-31.7-31.7H31.7C14.2,65,0,79.3,0,96.7v297.1c0,17.5,14.2,31.7,31.7,31.7h393.7
		c17.5,0,31.7-14.2,31.7-31.7v-68h23c5.8,0,10.5-4.7,10.5-10.5v-140C490.6,169.5,485.9,164.8,480.1,164.8z M31.7,86h393.7
		c5.9,0,10.7,4.8,10.7,10.7v20.6H21V96.7C21,90.8,25.8,86,31.7,86z M425.4,404.6H31.7c-5.9,0-10.7-4.8-10.7-10.7v-20.6h415.1v20.6
		C436.1,399.8,431.3,404.6,425.4,404.6z M436.1,352.3H21v-214h415.1v26.5h-75.3c-44.4,0-80.5,36.1-80.5,80.5s36.1,80.5,80.5,80.5
		h75.3L436.1,352.3L436.1,352.3z M469.6,304.8H360.8c-32.8,0-59.5-26.7-59.5-59.5s26.7-59.5,59.5-59.5h108.8L469.6,304.8
		L469.6,304.8z"/>
	<path d="M317.9,244.3c0,22.2,18,40.2,40.2,40.2s40.2-18,40.2-40.2s-18-40.2-40.2-40.2S317.9,222.2,317.9,244.3z M377.3,244.3
		c0,10.6-8.6,19.2-19.2,19.2s-19.2-8.6-19.2-19.2c0-10.6,8.6-19.2,19.2-19.2S377.3,233.7,377.3,244.3z"/>
</g>
<g>
	<g>
		<g>
			<path d="M155,353.1h-0.9"/>
		</g>
	</g>
</g>
<g>
	<g id="path3759">
		<path d="M147.7,326c-8.9,0-18.2-0.5-27.6-1c-2.8-0.1-5.6-0.3-8.5-0.4l-14.5-0.7V170.8l14.8-0.4c35.9-1,72.9-2,96.5,21
			c13.8,13.5,20.4,32.9,20.2,59.2l0,0.6c-1.3,26.5-8.6,45.3-22.3,57.6C190.8,322.9,170.3,326,147.7,326z M127.6,294.8
			c25.3,1.3,46.9,1.6,58.1-8.5c7.3-6.6,11.3-18.4,12.3-36.2c0.1-17.4-3.5-29.5-11-36.8c-11.8-11.6-35-13-59.4-12.7V294.8z"/>
	</g>
	<g id="rect2987">
		<rect x="75.4" y="234.1" width="80.8" height="28.2"/>
	</g>
</g>
</svg>
