<?xml version="1.0" encoding="utf-8"?>
<!-- Generator: Adobe Illustrator 22.0.1, SVG Export Plug-In . SVG Version: 6.00 Build 0)  -->
<svg version="1.1" id="Capa_1" xmlns="http://www.w3.org/2000/svg" xmlns:xlink="http://www.w3.org/1999/xlink" x="0px" y="0px"
	 viewBox="0 0 490.6 490.6" enable-background="new 0 0 490.6 490.6" xml:space="preserve">
<g>
	<path d="M480.1,164.8h-23v-68c0-17.5-14.2-31.7-31.7-31.7H31.7C14.2,65,0,79.3,0,96.7v297.1c0,17.5,14.2,31.7,31.7,31.7h393.7
		c17.5,0,31.7-14.2,31.7-31.7v-68h23c5.8,0,10.5-4.7,10.5-10.5v-140C490.6,169.5,485.9,164.8,480.1,164.8z M31.7,86h393.7
		c5.9,0,10.7,4.8,10.7,10.7v20.6H21V96.7C21,90.8,25.8,86,31.7,86z M425.4,404.6H31.7c-5.9,0-10.7-4.8-10.7-10.7v-20.6h415.1v20.6
		C436.1,399.8,431.3,404.6,425.4,404.6z M436.1,352.3H21v-214h415.1v26.5h-75.3c-44.4,0-80.5,36.1-80.5,80.5s36.1,80.5,80.5,80.5
		h75.3L436.1,352.3L436.1,352.3z M469.6,304.8H360.8c-32.8,0-59.5-26.7-59.5-59.5c0-32.8,26.7-59.5,59.5-59.5h108.8L469.6,304.8
		L469.6,304.8z"/>
	<path d="M317.9,244.3c0,22.2,18,40.2,40.2,40.2s40.2-18,40.2-40.2s-18-40.2-40.2-40.2C335.9,204.1,317.9,222.2,317.9,244.3z
		 M377.3,244.3c0,10.6-8.6,19.2-19.2,19.2c-10.6,0-19.2-8.6-19.2-19.2c0-10.6,8.6-19.2,19.2-19.2S377.3,233.7,377.3,244.3z"/>
</g>
<g>
	<g>
		<g>
			<path d="M155,353.1h-0.9"/>
			<path d="M200.8,253.6L200.8,253.6l-45.5,22.4l-45.5-22.4c-2.4-1.2-5.4-0.6-7.1,1.4c-1.8,2-2,4.9-0.6,7.3l48.2,76.1
				c1.1,1.8,3,2.8,5.1,2.8c2,0,4-1.1,5.1-2.8l48.2-76.1c1.4-2.3,1.2-5.2-0.6-7.3C206.2,253,203.2,252.5,200.8,253.6z M149.3,314.4
				L123.7,274l25.6,12.6V314.4z M161.3,314.4v-27.8l25.6-12.6L161.3,314.4z"/>
			<path d="M209.3,229c-0.1-0.6-0.4-1.1-0.7-1.7l0,0l-48.2-76.1c-0.1-0.1-0.2-0.1-0.4-0.3c-1.1-1.6-2.8-2.5-4.7-2.5
				s-3.7,0.9-4.7,2.5c-0.1,0.1-0.2,0.1-0.4,0.3L102,227.3l0,0c-0.4,0.5-0.6,1.1-0.7,1.7c-0.1,0.5-0.1,1-0.2,1.6c0,0.1,0,0.2,0.1,0.3
				c0.1,0.6,0.2,1.2,0.4,1.8c0.1,0.2,0.2,0.4,0.3,0.6c0.2,0.4,0.4,0.7,0.6,1c0.1,0.1,0.1,0.2,0.2,0.4c0.1,0.1,0.1,0.1,0.2,0.1
				c0.3,0.3,0.6,0.6,1,0.8c0.1,0.1,0.4,0.2,0.5,0.4c0.1,0,0.1,0.1,0.1,0.1l48.2,23.8c1.7,0.8,3.7,0.8,5.4,0l48.2-23.8
				c0.6-0.4,1.2-0.8,1.6-1.3c0.1-0.1,0.1-0.1,0.1-0.1c0.1-0.1,0.1-0.2,0.2-0.4c0.2-0.3,0.4-0.6,0.6-1c0.1-0.2,0.2-0.4,0.3-0.6
				c0.2-0.6,0.3-1.2,0.4-1.8c0-0.1,0.1-0.2,0.1-0.3c0-0.3-0.1-0.6-0.1-0.9C209.4,229.4,209.4,229.2,209.3,229z M161.3,175.2
				l25.6,40.4L161.3,203V175.2L161.3,175.2z M149.3,175.2V203l-25.6,12.6L149.3,175.2z M155.3,247.6l-34.6-17.1l34.6-17.1l34.6,17.1
				L155.3,247.6z"/>
		</g>
	</g>
</g>
</svg>
