<?xml version="1.0" encoding="iso-8859-1"?>
<!-- Generator: Adobe Illustrator 19.0.0, SVG Export Plug-In . SVG Version: 6.00 Build 0)  -->
<svg version="1.1" id="Capa_1" xmlns="http://www.w3.org/2000/svg" xmlns:xlink="http://www.w3.org/1999/xlink" x="0px" y="0px"
	 viewBox="0 0 512 512" style="enable-background:new 0 0 512 512;" xml:space="preserve">
<g>
	<g>
		<polygon points="72.303,221.399 57.298,221.399 42.293,221.399 42.293,512 186.228,512 186.228,496.995 186.228,481.991 
			186.228,221.399 		"/>
	</g>
</g>
<g>
	<g>
		<polygon points="454.702,221.399 439.697,221.399 325.772,221.399 325.772,481.991 325.772,496.995 325.772,512 469.707,512 
			469.707,221.399 		"/>
	</g>
</g>
<g>
	<g>
		<polygon points="410.738,96.61 426.873,80.475 346.388,0 294.972,51.416 264.973,81.425 256,90.398 247.027,81.425 
			217.028,51.416 165.612,0 85.127,80.475 101.262,96.61 25.368,96.61 25.368,191.39 40.373,191.39 55.377,191.39 186.228,191.39 
			186.228,126.62 186.228,111.615 186.228,96.61 216.238,96.61 216.238,111.615 216.238,126.62 216.238,191.39 216.238,206.395 
			216.238,221.399 216.238,481.991 216.238,496.995 216.238,512 295.762,512 295.762,496.995 295.762,481.991 295.762,221.399 
			295.762,206.395 295.762,191.39 295.762,126.62 295.762,111.615 295.762,96.61 325.772,96.61 325.772,111.615 325.772,126.62 
			325.772,191.39 456.623,191.39 471.627,191.39 486.632,191.39 486.632,96.61 		"/>
	</g>
</g>
<g>
</g>
<g>
</g>
<g>
</g>
<g>
</g>
<g>
</g>
<g>
</g>
<g>
</g>
<g>
</g>
<g>
</g>
<g>
</g>
<g>
</g>
<g>
</g>
<g>
</g>
<g>
</g>
<g>
</g>
</svg>
