<?xml version="1.0" encoding="iso-8859-1"?>
<!-- Generator: Adobe Illustrator 19.0.0, SVG Export Plug-In . SVG Version: 6.00 Build 0)  -->
<svg version="1.1" id="Capa_1" xmlns="http://www.w3.org/2000/svg" xmlns:xlink="http://www.w3.org/1999/xlink" x="0px" y="0px"
	 viewBox="0 0 464 464" style="enable-background:new 0 0 464 464;" xml:space="preserve">
<g>
	<g>
		<circle cx="104" cy="312" r="8"/>
	</g>
</g>
<g>
	<g>
		<circle cx="280" cy="400" r="8"/>
	</g>
</g>
<g>
	<g>
		<path d="M312.671,144.478c-0.824-0.638-1.672-1.243-2.543-1.814h-0.04c-13.434-8.72-30.742-8.72-44.176,0
			c-18.292,11.964-23.422,36.492-11.458,54.784c0.572,0.874,1.178,1.726,1.818,2.552h63.456
			C333.111,182.719,329.952,157.861,312.671,144.478z"/>
	</g>
</g>
<g>
	<g>
		<path d="M288,104c-39.764,0-72,32.235-72,72c-0.011,8.178,1.388,16.297,4.136,24h17.328c-12.027-25.144-3.661-55.307,19.6-70.664
			c18.814-12.218,43.058-12.218,61.872,0c23.261,15.357,31.627,45.52,19.6,70.664h17.328c2.748-7.703,4.147-15.822,4.136-24
			C360,136.235,327.765,104,288,104z"/>
	</g>
</g>
<g>
	<g>
		<circle cx="152" cy="88" r="40"/>
	</g>
</g>
<g>
	<g>
		<path d="M264,280h136v-72.208c-6.883,5.294-15.316,8.179-24,8.208H88c-8.684-0.029-17.117-2.914-24-8.208V440
			c0,13.255,10.745,24,24,24h32v-60.688l-21.656-21.656c-1.5-1.5-2.344-3.534-2.344-5.656v-41.472
			c-12.497-4.418-19.046-18.131-14.627-30.627c4.418-12.497,18.131-19.046,30.627-14.627c12.497,4.418,19.046,18.131,14.627,30.627
			c-2.416,6.835-7.793,12.211-14.627,14.627v38.16l21.656,21.656c1.5,1.5,2.344,3.534,2.344,5.656v64h24v-97.472
			c-12.497-4.418-19.046-18.131-14.627-30.627c4.418-12.497,18.131-19.046,30.627-14.627c12.497,4.418,19.046,18.131,14.627,30.627
			c-2.416,6.835-7.793,12.211-14.627,14.627V464h24v-40c0-2.518,1.186-4.889,3.2-6.4l32-24c1.385-1.039,3.069-1.6,4.8-1.6h17.472
			c4.418-12.497,18.131-19.046,30.627-14.627s19.046,18.131,14.627,30.627c-4.418,12.497-18.131,19.046-30.627,14.627
			c-6.835-2.416-12.211-7.793-14.627-14.627h-14.808L216,428v36h160c13.255,0,24-10.745,24-24v-80H264c-22.091,0-40-17.909-40-40
			C224,297.909,241.909,280,264,280z"/>
	</g>
</g>
<g>
	<g>
		<path d="M152,16c-39.764,0-72,32.235-72,72c0.048,39.744,32.256,71.952,72,72c39.765,0,72-32.236,72-72
			C224,48.235,191.765,16,152,16z M152,144c-30.928,0-56-25.072-56-56c0.035-30.913,25.087-55.965,56-56c30.928,0,56,25.072,56,56
			C208,118.928,182.928,144,152,144z"/>
	</g>
</g>
<g>
	<g>
		<path d="M200,176c0.054-5.142,0.568-10.269,1.536-15.32c-37.384,25.563-88.08,18.491-117.04-16.328
			C72.758,146.084,64.047,156.135,64,168v8c0,13.255,10.745,24,24,24h115.448C201.187,192.2,200.026,184.122,200,176z"/>
	</g>
</g>
<g>
	<g>
		<path d="M264,296c-13.255,0-24,10.745-24,24s10.745,24,24,24h136v-48H264z"/>
	</g>
</g>
<g>
	<g>
		<circle cx="168" cy="344" r="8"/>
	</g>
</g>
<g>
	<g>
		<path d="M376,144h-6.176c7.164,17.832,8.125,37.556,2.728,56H376c13.255,0,24-10.745,24-24v-8C400,154.745,389.255,144,376,144z"
			/>
	</g>
</g>
<g>
	<g>
		<rect x="256" width="16" height="16"/>
	</g>
</g>
<g>
	<g>
		<rect x="256" y="32" width="16" height="40"/>
	</g>
</g>
<g>
	<g>
		<rect x="288" width="16" height="16"/>
	</g>
</g>
<g>
	<g>
		<rect x="288" y="32" width="16" height="40"/>
	</g>
</g>
<g>
</g>
<g>
</g>
<g>
</g>
<g>
</g>
<g>
</g>
<g>
</g>
<g>
</g>
<g>
</g>
<g>
</g>
<g>
</g>
<g>
</g>
<g>
</g>
<g>
</g>
<g>
</g>
<g>
</g>
</svg>
